<?xml version="1.0" encoding="utf-8"?>
<!-- Generator: Adobe Illustrator 22.1.0, SVG Export Plug-In . SVG Version: 6.00 Build 0)  -->
<svg version="1.1" id="Layer_1" xmlns="http://www.w3.org/2000/svg" xmlns:xlink="http://www.w3.org/1999/xlink" x="0px" y="0px"
	 viewBox="0 0 84.5 26" style="enable-background:new 0 0 84.5 26;" xml:space="preserve">
<style type="text/css">
	.st0{fill:#302F2D;}
</style>
<g>
	<g>
		<path class="st0" d="M7.8,18.7H3.9l-0.9,2.4H2.4l3.2-8.5h0.7l3.2,8.5H8.7L7.8,18.7z M4.2,18.1h3.4l-1.7-4.6h0L4.2,18.1z"/>
		<path class="st0" d="M13.8,17.6v3.5h-0.7v-8.5H16c0.9,0,1.6,0.2,2.1,0.7c0.5,0.5,0.7,1,0.7,1.8c0,0.8-0.2,1.4-0.7,1.8
			c-0.5,0.4-1.2,0.7-2.1,0.7H13.8z M13.8,17H16c0.7,0,1.2-0.2,1.6-0.5c0.4-0.4,0.5-0.8,0.5-1.3c0-0.5-0.2-1-0.5-1.4
			c-0.3-0.4-0.9-0.5-1.6-0.5h-2.2V17z"/>
		<path class="st0" d="M25.2,16.2l2.4-3.6h0.8l-2.8,4.2l2.9,4.3h-0.8l-2.5-3.7l-2.5,3.7h-0.8l2.9-4.3L22,12.6h0.8L25.2,16.2z"/>
		<path class="st0" d="M33.2,21.1h-0.7v-8.5h0.7V21.1z"/>
		<path class="st0" d="M43.8,18.4L43.8,18.4c-0.1,0.9-0.4,1.6-0.9,2s-1.2,0.7-2.1,0.7c-0.9,0-1.7-0.3-2.3-1
			c-0.6-0.7-0.9-1.6-0.9-2.6v-1.4c0-1.1,0.3-2,0.9-2.6c0.6-0.7,1.3-1,2.3-1c0.9,0,1.6,0.2,2.1,0.7s0.8,1.1,0.9,2l0,0h-0.7
			c-0.1-0.7-0.3-1.2-0.7-1.6c-0.4-0.4-0.9-0.6-1.7-0.6c-0.7,0-1.3,0.3-1.8,0.9c-0.4,0.6-0.7,1.3-0.7,2.2v1.4c0,0.9,0.2,1.6,0.7,2.2
			c0.4,0.6,1,0.9,1.8,0.9c0.7,0,1.3-0.2,1.7-0.5s0.6-0.9,0.7-1.6H43.8z"/>
		<path class="st0" d="M52.5,18.7h-3.9l-0.9,2.4h-0.7l3.2-8.5h0.7l3.2,8.5h-0.7L52.5,18.7z M48.9,18.1h3.4l-1.7-4.6h0L48.9,18.1z"/>
		<path class="st0" d="M62.6,17.1h-4.1v4h-0.7v-8.5h5.4v0.6h-4.7v3.3h4.1V17.1z"/>
		<path class="st0" d="M71.9,17.1h-4.1v4h-0.7v-8.5h5.4v0.6h-4.7v3.3h4.1V17.1z"/>
		<path class="st0" d="M81.1,17H77v3.5h4.7v0.6h-5.4v-8.5h5.3v0.6H77v3.2h4.1V17z"/>
		<path class="st0" d="M79.6,11.8h-0.7l-1.4-1.5l0,0h0.9L79.6,11.8z"/>
	</g>
	<g>
		<path class="st0" d="M6.7,5H5.4v3.1H5.2V5H4V4.8h2.7V5z"/>
		<path class="st0" d="M8.7,8.1V4.8h1.1c0.4,0,0.7,0.1,0.9,0.2s0.3,0.4,0.3,0.6c0,0.2-0.1,0.3-0.2,0.5c-0.1,0.1-0.3,0.2-0.5,0.3h0
			c0.2,0,0.4,0.1,0.6,0.3c0.2,0.2,0.2,0.3,0.2,0.5c0,0.3-0.1,0.5-0.3,0.7c-0.2,0.2-0.5,0.2-0.9,0.2H8.7z M8.9,6.4h1
			c0.3,0,0.6-0.1,0.8-0.2c0.2-0.1,0.3-0.3,0.3-0.5s-0.1-0.4-0.3-0.5C10.5,5.1,10.2,5,9.9,5h-1V6.4z M8.9,6.5V8h1.2
			c0.3,0,0.6-0.1,0.7-0.2c0.2-0.1,0.3-0.3,0.3-0.5c0-0.2-0.1-0.4-0.3-0.5s-0.4-0.2-0.7-0.2H8.9z"/>
		<path class="st0" d="M13.1,6.4c0-0.5,0.1-0.9,0.4-1.2s0.6-0.5,1-0.5c0.4,0,0.8,0.2,1,0.5C15.8,5.5,16,5.9,16,6.4v0.1
			c0,0.5-0.1,0.9-0.4,1.2c-0.3,0.3-0.6,0.5-1,0.5c-0.4,0-0.8-0.2-1-0.5c-0.3-0.3-0.4-0.7-0.4-1.2V6.4z M13.3,6.5
			c0,0.4,0.1,0.8,0.3,1.1C13.8,7.9,14.2,8,14.5,8c0.4,0,0.7-0.1,0.9-0.4c0.2-0.3,0.3-0.6,0.3-1.1V6.4c0-0.4-0.1-0.8-0.4-1
			c-0.2-0.3-0.5-0.4-0.9-0.4c-0.4,0-0.7,0.1-0.9,0.4s-0.3,0.6-0.3,1V6.5z"/>
		<path class="st0" d="M20.5,6.5c0,0.5-0.1,0.9-0.3,1.2C20,8,19.7,8.2,19.3,8.2c-0.3,0-0.5-0.1-0.7-0.2c-0.2-0.1-0.3-0.2-0.4-0.4
			v1.8H18V4.8h0.1l0,0.6c0.1-0.2,0.3-0.4,0.4-0.5c0.2-0.1,0.4-0.2,0.7-0.2c0.4,0,0.7,0.2,0.9,0.5C20.4,5.5,20.5,6,20.5,6.5L20.5,6.5
			z M20.4,6.5c0-0.5-0.1-0.8-0.3-1.1c-0.2-0.3-0.4-0.4-0.8-0.4c-0.3,0-0.6,0.1-0.7,0.2c-0.2,0.2-0.3,0.4-0.4,0.6v1.5
			c0.1,0.2,0.2,0.4,0.4,0.5S19,8,19.3,8c0.3,0,0.6-0.1,0.8-0.4S20.4,7,20.4,6.5L20.4,6.5z"/>
		<path class="st0" d="M25,8.1h-0.2V6.5c-0.1,0.1-0.3,0.1-0.5,0.2c-0.2,0-0.3,0.1-0.5,0.1c-0.4,0-0.8-0.1-1-0.3
			c-0.2-0.2-0.3-0.5-0.3-1V4.8h0.2v0.7c0,0.4,0.1,0.7,0.2,0.8c0.2,0.1,0.4,0.2,0.8,0.2c0.2,0,0.3,0,0.5-0.1c0.2,0,0.3-0.1,0.4-0.2
			V4.8H25V8.1z"/>
		<path class="st0" d="M28.5,8.2c-0.4,0-0.7-0.2-1-0.5c-0.3-0.3-0.4-0.7-0.4-1.1V6.4c0-0.5,0.1-0.9,0.4-1.2c0.3-0.3,0.6-0.5,1-0.5
			c0.4,0,0.7,0.1,0.9,0.4c0.2,0.2,0.4,0.6,0.4,1v0.3h-2.5v0v0.2c0,0.4,0.1,0.7,0.4,1C27.8,7.9,28.1,8,28.5,8c0.2,0,0.5,0,0.6-0.1
			c0.2-0.1,0.3-0.2,0.4-0.3l0.1,0.1c-0.1,0.1-0.3,0.3-0.5,0.3C28.9,8.2,28.7,8.2,28.5,8.2z M28.5,4.9c-0.3,0-0.6,0.1-0.8,0.4
			c-0.2,0.2-0.3,0.5-0.4,0.9l0,0h2.3V6.1c0-0.3-0.1-0.6-0.3-0.8C29,5,28.8,4.9,28.5,4.9z"/>
		<path class="st0" d="M32.9,8c0.3,0,0.5-0.1,0.7-0.2c0.2-0.2,0.3-0.4,0.3-0.7H34l0,0c0,0.3-0.1,0.6-0.4,0.8
			c-0.2,0.2-0.5,0.3-0.8,0.3c-0.4,0-0.7-0.2-1-0.5c-0.2-0.3-0.4-0.7-0.4-1.2V6.4c0-0.5,0.1-0.9,0.4-1.2c0.2-0.3,0.6-0.5,1-0.5
			c0.3,0,0.6,0.1,0.9,0.3c0.2,0.2,0.4,0.5,0.3,0.8l0,0h-0.1c0-0.3-0.1-0.6-0.3-0.7c-0.2-0.2-0.5-0.3-0.8-0.3c-0.4,0-0.7,0.1-0.9,0.4
			c-0.2,0.3-0.3,0.6-0.3,1.1v0.1c0,0.4,0.1,0.8,0.3,1.1C32.2,7.9,32.5,8,32.9,8z"/>
		<path class="st0" d="M36.9,6.5h-0.6v1.6h-0.2V4.8h0.2v1.5h0.6l1.3-1.5h0.2l0,0l-1.4,1.6l1.6,1.7l0,0h-0.2L36.9,6.5z"/>
		<path class="st0" d="M42.6,7.5C42.4,7.7,42.3,7.9,42,8c-0.2,0.1-0.5,0.2-0.8,0.2c-0.3,0-0.5-0.1-0.7-0.3c-0.2-0.2-0.3-0.4-0.3-0.7
			c0-0.3,0.1-0.5,0.4-0.7c0.3-0.2,0.6-0.3,1-0.3h0.9V5.8c0-0.3-0.1-0.5-0.3-0.6c-0.2-0.2-0.4-0.2-0.7-0.2c-0.3,0-0.5,0.1-0.7,0.2
			c-0.2,0.1-0.3,0.3-0.3,0.6l-0.1,0l0,0c0-0.3,0.1-0.5,0.3-0.7c0.2-0.2,0.5-0.3,0.8-0.3c0.4,0,0.6,0.1,0.8,0.3
			c0.2,0.2,0.3,0.4,0.3,0.8v1.7c0,0.1,0,0.2,0,0.3c0,0.1,0,0.2,0.1,0.3h-0.2c0-0.1,0-0.3-0.1-0.3C42.6,7.7,42.6,7.7,42.6,7.5
			L42.6,7.5z M41.2,8c0.3,0,0.6-0.1,0.8-0.2c0.2-0.1,0.4-0.4,0.5-0.6V6.5h-0.9c-0.3,0-0.6,0.1-0.9,0.2S40.4,7,40.4,7.3
			c0,0.2,0.1,0.4,0.2,0.5C40.8,8,41,8,41.2,8z"/>
		<path class="st0" d="M47.3,4.8v3.3h-0.2V6.8H46h0l-0.8,1.4h-0.2l0.8-1.4c-0.2,0-0.4-0.1-0.6-0.3C45.1,6.3,45,6,45,5.8
			c0-0.3,0.1-0.5,0.3-0.7c0.2-0.2,0.5-0.3,0.8-0.3H47.3z M45.2,5.8c0,0.2,0.1,0.4,0.2,0.6c0.1,0.2,0.3,0.2,0.6,0.2h1.2V5h-1.1
			c-0.3,0-0.6,0.1-0.7,0.2C45.2,5.4,45.2,5.6,45.2,5.8z"/>
		<path class="st0" d="M52.4,8.1V4.8h1.1c0.4,0,0.7,0.1,0.9,0.2s0.3,0.4,0.3,0.6c0,0.2-0.1,0.3-0.2,0.5c-0.1,0.1-0.3,0.2-0.5,0.3h0
			c0.2,0,0.4,0.1,0.6,0.3c0.2,0.2,0.2,0.3,0.2,0.5c0,0.3-0.1,0.5-0.3,0.7c-0.2,0.2-0.5,0.2-0.9,0.2H52.4z M52.6,6.4h1
			c0.3,0,0.6-0.1,0.8-0.2c0.2-0.1,0.3-0.3,0.3-0.5s-0.1-0.4-0.3-0.5C54.2,5.1,53.9,5,53.5,5h-1V6.4z M52.6,6.5V8h1.2
			c0.3,0,0.6-0.1,0.7-0.2c0.2-0.1,0.3-0.3,0.3-0.5c0-0.2-0.1-0.4-0.3-0.5S54,6.5,53.7,6.5H52.6z"/>
		<path class="st0" d="M58.1,8c0.3,0,0.5-0.1,0.7-0.2c0.2-0.2,0.3-0.4,0.3-0.7h0.1l0,0c0,0.3-0.1,0.6-0.4,0.8
			c-0.2,0.2-0.5,0.3-0.8,0.3c-0.4,0-0.7-0.2-1-0.5c-0.2-0.3-0.4-0.7-0.4-1.2V6.4c0-0.5,0.1-0.9,0.4-1.2c0.2-0.3,0.6-0.5,1-0.5
			c0.3,0,0.6,0.1,0.9,0.3c0.2,0.2,0.4,0.5,0.3,0.8l0,0h-0.1c0-0.3-0.1-0.6-0.3-0.7c-0.2-0.2-0.5-0.3-0.8-0.3c-0.4,0-0.7,0.1-0.9,0.4
			C57.1,5.6,57,6,57,6.4v0.1c0,0.4,0.1,0.8,0.3,1.1C57.5,7.9,57.8,8,58.1,8z"/>
		<path class="st0" d="M63.8,5h-1.3v3.1h-0.2V5h-1.2V4.8h2.7V5z"/>
		<path class="st0" d="M68.3,6.5c0,0.5-0.1,0.9-0.3,1.2c-0.2,0.3-0.5,0.4-0.9,0.4c-0.3,0-0.5-0.1-0.7-0.2c-0.2-0.1-0.3-0.2-0.4-0.4
			v1.8h-0.2V4.8h0.1l0,0.6c0.1-0.2,0.3-0.4,0.4-0.5c0.2-0.1,0.4-0.2,0.7-0.2c0.4,0,0.7,0.2,0.9,0.5C68.2,5.5,68.3,6,68.3,6.5
			L68.3,6.5z M68.2,6.5c0-0.5-0.1-0.8-0.3-1.1c-0.2-0.3-0.4-0.4-0.8-0.4c-0.3,0-0.6,0.1-0.7,0.2c-0.2,0.2-0.3,0.4-0.4,0.6v1.5
			c0.1,0.2,0.2,0.4,0.4,0.5S66.8,8,67.1,8c0.3,0,0.6-0.1,0.8-0.4S68.2,7,68.2,6.5L68.2,6.5z"/>
		<path class="st0" d="M71.6,8.2c-0.4,0-0.7-0.2-1-0.5c-0.3-0.3-0.4-0.7-0.4-1.1V6.4c0-0.5,0.1-0.9,0.4-1.2c0.3-0.3,0.6-0.5,1-0.5
			c0.4,0,0.7,0.1,0.9,0.4c0.2,0.2,0.4,0.6,0.4,1v0.3h-2.5v0v0.2c0,0.4,0.1,0.7,0.4,1C71,7.9,71.3,8,71.6,8c0.2,0,0.5,0,0.6-0.1
			c0.2-0.1,0.3-0.2,0.4-0.3l0.1,0.1c-0.1,0.1-0.3,0.3-0.5,0.3C72.1,8.2,71.9,8.2,71.6,8.2z M71.6,4.9c-0.3,0-0.6,0.1-0.8,0.4
			c-0.2,0.2-0.3,0.5-0.4,0.9l0,0h2.3V6.1c0-0.3-0.1-0.6-0.3-0.8C72.2,5,71.9,4.9,71.6,4.9z"/>
		<path class="st0" d="M77.2,8.1h-0.2V6.5c-0.1,0.1-0.3,0.1-0.5,0.2c-0.2,0-0.3,0.1-0.5,0.1c-0.4,0-0.8-0.1-1-0.3
			c-0.2-0.2-0.3-0.5-0.3-1V4.8H75v0.7c0,0.4,0.1,0.7,0.2,0.8c0.2,0.1,0.4,0.2,0.8,0.2c0.2,0,0.3,0,0.5-0.1c0.2,0,0.3-0.1,0.4-0.2
			V4.8h0.2V8.1z"/>
		<path class="st0" d="M81.6,7.5c-0.1,0.2-0.3,0.4-0.5,0.5c-0.2,0.1-0.5,0.2-0.8,0.2c-0.3,0-0.5-0.1-0.7-0.3
			c-0.2-0.2-0.3-0.4-0.3-0.7c0-0.3,0.1-0.5,0.4-0.7c0.3-0.2,0.6-0.3,1-0.3h0.9V5.8c0-0.3-0.1-0.5-0.3-0.6c-0.2-0.2-0.4-0.2-0.7-0.2
			c-0.3,0-0.5,0.1-0.7,0.2c-0.2,0.1-0.3,0.3-0.3,0.6l-0.1,0l0,0c0-0.3,0.1-0.5,0.3-0.7c0.2-0.2,0.5-0.3,0.8-0.3
			c0.4,0,0.6,0.1,0.8,0.3c0.2,0.2,0.3,0.4,0.3,0.8v1.7c0,0.1,0,0.2,0,0.3c0,0.1,0,0.2,0.1,0.3h-0.2c0-0.1,0-0.3-0.1-0.3
			C81.6,7.7,81.6,7.7,81.6,7.5L81.6,7.5z M80.3,8c0.3,0,0.6-0.1,0.8-0.2c0.2-0.1,0.4-0.4,0.5-0.6V6.5h-0.9c-0.3,0-0.6,0.1-0.9,0.2
			S79.5,7,79.5,7.3c0,0.2,0.1,0.4,0.2,0.5C79.8,8,80,8,80.3,8z"/>
	</g>
</g>
</svg>
