<?xml version="1.0" encoding="utf-8"?>
<!-- Generator: Adobe Illustrator 22.1.0, SVG Export Plug-In . SVG Version: 6.00 Build 0)  -->
<svg version="1.1" id="Layer_1" xmlns="http://www.w3.org/2000/svg" xmlns:xlink="http://www.w3.org/1999/xlink" x="0px" y="0px"
	 viewBox="0 0 118 18.9" style="enable-background:new 0 0 118 18.9;" xml:space="preserve">
<style type="text/css">
	.st0{fill:#302F2D;}
</style>
<path class="st0" d="M47.7,9.4L47.7,9.4C47.7,9.4,47.7,9.4,47.7,9.4L47.7,9.4z"/>
<g>
	<g>
		<path class="st0" d="M53.8,3.7h2.2c1.3,0,2.4,0.2,3.4,0.7c1,0.5,1.7,1.1,2.3,2c0.5,0.9,0.8,1.9,0.8,3c0,1.2-0.3,2.2-0.8,3
			c-0.5,0.9-1.3,1.5-2.3,2c-1,0.5-2.1,0.7-3.4,0.7h-2.2 M55.8,12.6c1,0,1.8-0.3,2.4-0.8c0.6-0.6,0.9-1.3,0.9-2.3
			c0-1-0.3-1.8-0.9-2.3c-0.6-0.6-1.4-0.8-2.4-0.8h-2.1v6.3H55.8z"/>
		<path class="st0" d="M67.5,12.2 M67.3,12.7h6v2.5h-6.1L67.3,12.7L67.3,12.7 M67.3,8.2h5.1v2.4h-5.1v0 M67.2,6.2V3.7h5.9v2.5
			L67.2,6.2"/>
		<path class="st0" d="M76.4,15.1c-0.9-0.2-1.6-0.5-2.1-0.9l1.1-2.4c0.5,0.3,1.1,0.6,1.8,0.8c0.7,0.2,1.3,0.3,2,0.3
			c1.2,0,1.9-0.3,1.9-0.9c0-0.3-0.2-0.6-0.5-0.7c-0.4-0.2-0.9-0.3-1.7-0.5c-0.9-0.2-1.6-0.4-2.2-0.6c-0.6-0.2-1.1-0.6-1.5-1
			c-0.4-0.5-0.6-1.1-0.6-1.9c0-0.7,0.2-1.3,0.6-1.9c0.4-0.6,1-1,1.7-1.3c0.8-0.3,1.7-0.5,2.8-0.5c0.8,0,1.5,0.1,2.2,0.3
			c0.7,0.2,1.4,0.4,1.9,0.7l-1,2.4C81.7,6.3,80.6,6,79.6,6c-0.6,0-1.1,0.1-1.4,0.3c-0.3,0.2-0.4,0.4-0.4,0.7c0,0.3,0.2,0.5,0.5,0.7
			C78.6,7.9,79.2,8,80,8.2c0.9,0.2,1.6,0.4,2.2,0.6c0.6,0.2,1.1,0.6,1.5,1c0.4,0.5,0.6,1.1,0.6,1.9c0,0.7-0.2,1.3-0.6,1.9
			c-0.4,0.6-1,1-1.7,1.3s-1.7,0.5-2.8,0.5C78.2,15.4,77.3,15.3,76.4,15.1z"/>
		<path class="st0" d="M85.8,3.7h3.4v5.8h-3.4V3.7z"/>
		<path class="st0" d="M101.9,12.3V14c-0.7,0.5-1.4,0.8-2.3,1.1c-0.9,0.3-1.7,0.4-2.6,0.4c-1.2,0-2.3-0.3-3.3-0.8
			c-1-0.5-1.7-1.2-2.3-2.1c-0.5-0.9-0.8-1.9-0.8-3.1c0-1.2,0.3-2.2,0.8-3.1c0.5-0.9,1.3-1.6,2.3-2.1c1-0.5,2.1-0.8,3.3-0.8
			c1.1,0,2,0.2,2.9,0.5c0.9,0.4,1.6,0.9,2.1,1.6l-2.1,1.9c-0.8-0.9-1.7-1.3-2.8-1.3c-1,0-1.8,0.3-2.4,0.9C94.3,7.7,94,8.5,94,9.5
			c0,0.6,0.1,1.2,0.4,1.7c0.3,0.5,0.7,0.9,1.2,1.2c0.5,0.3,1.1,0.4,1.7,0.4c0.6,0,1.2-0.1,1.8-0.4"/>
		<path class="st0" d="M114.9,9.9v5.3h-2.7l-5.1-6.1v0.1V9.1l-3.2,0l0,0V9V3.7h2.7l5.1,6.1"/>
		<rect x="66.7" y="3.7" class="st0" width="0.3" height="11.5"/>
		<rect x="66.1" y="3.7" class="st0" width="0.3" height="11.5"/>
		<rect x="65.6" y="3.7" class="st0" width="0.3" height="11.5"/>
		<rect x="65.1" y="3.7" class="st0" width="0.3" height="11.5"/>
		<rect x="64.5" y="3.7" class="st0" width="0.3" height="11.5"/>
		<rect x="85.8" y="9.5" class="st0" width="0.3" height="6"/>
		<rect x="86.3" y="9.5" class="st0" width="0.3" height="6"/>
		<rect x="86.8" y="9.5" class="st0" width="0.3" height="6"/>
		<rect x="87.3" y="9.5" class="st0" width="0.3" height="6"/>
		<rect x="87.9" y="9.5" class="st0" width="0.3" height="6"/>
		<rect x="88.4" y="9.5" class="st0" width="0.3" height="6"/>
		<rect x="88.9" y="9.5" class="st0" width="0.3" height="6"/>
		<rect x="104" y="9.1" class="st0" width="0.3" height="6.1"/>
		<rect x="104.5" y="9.1" class="st0" width="0.3" height="6.1"/>
		<rect x="105" y="9.1" class="st0" width="0.3" height="6.1"/>
		<rect x="105.6" y="9.1" class="st0" width="0.3" height="6.1"/>
		<rect x="106.1" y="9.1" class="st0" width="0.3" height="6.1"/>
		<rect x="106.6" y="9.1" class="st0" width="0.3" height="6.1"/>
		<rect x="107.1" y="9.1" class="st0" width="0.3" height="6.1"/>
		<rect x="111.5" y="3.7" class="st0" width="0.3" height="6.1"/>
		<rect x="112" y="3.7" class="st0" width="0.3" height="6.2"/>
		<rect x="112.5" y="3.7" class="st0" width="0.3" height="6.2"/>
		<rect x="113" y="3.7" class="st0" width="0.3" height="6.2"/>
		<rect x="113.6" y="3.7" class="st0" width="0.3" height="6.2"/>
		<rect x="114.1" y="3.7" class="st0" width="0.3" height="6.2"/>
		<rect x="114.6" y="3.9" class="st0" width="0.3" height="6.1"/>
		<rect x="99" y="9.2" class="st0" width="0.3" height="3.2"/>
		<rect x="99.6" y="9.2" class="st0" width="0.3" height="3.2"/>
		<rect x="100.1" y="9.2" class="st0" width="0.3" height="3.2"/>
		<rect x="100.6" y="9.2" class="st0" width="0.3" height="3.2"/>
		<rect x="101.1" y="9.2" class="st0" width="0.3" height="3.2"/>
		<rect x="101.7" y="9.2" class="st0" width="0.3" height="3.2"/>
		<rect x="53.2" y="3.7" class="st0" width="0.3" height="11.5"/>
		<rect x="52.7" y="3.7" class="st0" width="0.3" height="11.5"/>
		<rect x="52.2" y="3.7" class="st0" width="0.3" height="11.5"/>
		<rect x="51.6" y="3.7" class="st0" width="0.3" height="11.5"/>
		<rect x="51.1" y="3.7" class="st0" width="0.3" height="11.5"/>
		<path class="st0" d="M53.8,15.2"/>
		<path class="st0" d="M53.8,3.7"/>
	</g>
	<g>
		<path class="st0" d="M11.5,12.6v2.5H2.2V3.6h9v2.5H5.4v1.9h5.1v2.4H5.4v2.1H11.5z"/>
		<path class="st0" d="M20.4,15.1L18,11.6l-2.4,3.6H12l4.2-5.8l-4-5.7h3.7l2.3,3.3l2.3-3.3h3.5l-4,5.6l4.3,5.9H20.4z"/>
		<path class="st0" d="M32.9,4.1c0.8,0.3,1.4,0.8,1.8,1.5c0.4,0.6,0.6,1.4,0.6,2.3c0,0.9-0.2,1.6-0.6,2.3c-0.4,0.6-1,1.1-1.8,1.5
			c-0.8,0.3-1.7,0.5-2.7,0.5h-2v3h-3.3V3.6h5.3C31.2,3.6,32.1,3.8,32.9,4.1z M31.5,9.1C31.8,8.8,32,8.4,32,7.9c0-0.5-0.2-1-0.5-1.2
			c-0.3-0.3-0.8-0.4-1.5-0.4h-1.8v3.4H30C30.7,9.6,31.2,9.4,31.5,9.1z"/>
		<path class="st0" d="M39.6,14.6c-1-0.5-1.7-1.2-2.3-2.1c-0.6-0.9-0.8-1.9-0.8-3.1c0-1.1,0.3-2.2,0.8-3.1c0.6-0.9,1.3-1.6,2.3-2.1
			c1-0.5,2.1-0.8,3.3-0.8s2.3,0.3,3.3,0.8c1,0.5,1.7,1.2,2.3,2.1c0.6,0.9,0.8,1.9,0.8,3.1c0,1.1-0.3,2.2-0.8,3.1
			c-0.6,0.9-1.3,1.6-2.3,2.1c-1,0.5-2.1,0.8-3.3,0.8S40.5,15.1,39.6,14.6z M44.4,12.3c0.5-0.3,0.8-0.7,1.1-1.2
			C45.8,10.6,46,10,46,9.4c0-0.6-0.1-1.2-0.4-1.7c-0.3-0.5-0.6-0.9-1.1-1.2c-0.5-0.3-1-0.4-1.6-0.4c-0.6,0-1.1,0.1-1.6,0.4
			c-0.5,0.3-0.8,0.7-1.1,1.2c-0.3,0.5-0.4,1.1-0.4,1.7c0,0.6,0.1,1.2,0.4,1.7c0.3,0.5,0.6,0.9,1.1,1.2c0.5,0.3,1,0.4,1.6,0.4
			C43.4,12.7,44,12.5,44.4,12.3z"/>
		<g>
			<path class="st0" d="M41.7,9.9L41.7,9.9l-0.9,0v0l0.6-0.6c0.1-0.1,0.1-0.2,0.2-0.2c0-0.1,0-0.1,0-0.2c0-0.1,0-0.2-0.1-0.2
				c-0.1-0.1-0.2-0.1-0.3-0.1c-0.1,0-0.2,0-0.3,0c-0.1,0-0.1,0.1-0.2,0.1l0,0c0.1-0.1,0.3-0.2,0.5-0.2c0.1,0,0.2,0,0.3,0.1
				c0.1,0.1,0.1,0.2,0.1,0.3c0,0.1,0,0.1,0,0.2c0,0.1-0.1,0.1-0.2,0.2l-0.6,0.6H41.7z"/>
			<path class="st0" d="M42.1,9.9C42.1,9.8,42,9.8,42,9.6c0-0.1-0.1-0.2-0.1-0.4c0-0.1,0-0.3,0.1-0.4c0-0.1,0.1-0.2,0.2-0.2
				c0.1-0.1,0.2-0.1,0.3-0.1c0.1,0,0.2,0,0.3,0.1c0.1,0.1,0.1,0.1,0.2,0.2C42.9,9,43,9.1,43,9.3c0,0.1,0,0.3-0.1,0.4
				c0,0.1-0.1,0.2-0.2,0.2C42.6,10,42.5,10,42.4,10C42.3,10,42.2,10,42.1,9.9z M42.7,9.9c0.1-0.1,0.1-0.1,0.2-0.2
				c0-0.1,0.1-0.2,0.1-0.4c0-0.1,0-0.3-0.1-0.4c0-0.1-0.1-0.2-0.2-0.2c-0.1-0.1-0.2-0.1-0.3-0.1c-0.1,0-0.2,0-0.3,0.1
				C42.1,8.7,42,8.8,42,8.9c0,0.1-0.1,0.2-0.1,0.4c0,0.1,0,0.3,0.1,0.4c0,0.1,0.1,0.2,0.2,0.2c0.1,0.1,0.2,0.1,0.3,0.1
				C42.5,9.9,42.6,9.9,42.7,9.9z"/>
			<path class="st0" d="M43.5,8.6V10h0L43.5,8.6l-0.4,0v0H43.5z"/>
			<path class="st0" d="M44.8,9.4c0.1,0.1,0.1,0.1,0.1,0.2c0,0.1,0,0.2-0.1,0.3C44.7,10,44.6,10,44.4,10c-0.2,0-0.3,0-0.4-0.1
				c-0.1-0.1-0.1-0.2-0.1-0.3c0-0.1,0-0.2,0.1-0.2c0.1-0.1,0.2-0.1,0.3-0.1c-0.1,0-0.2-0.1-0.2-0.1C44,9.1,43.9,9,43.9,8.9
				c0-0.1,0-0.2,0.1-0.3c0.1-0.1,0.2-0.1,0.3-0.1c0.1,0,0.3,0,0.3,0.1c0.1,0.1,0.1,0.1,0.1,0.3c0,0.1,0,0.2-0.1,0.2
				s-0.1,0.1-0.2,0.1C44.7,9.3,44.8,9.3,44.8,9.4z M44.8,9.9c0.1-0.1,0.1-0.1,0.1-0.3c0-0.1,0-0.2-0.1-0.2s-0.2-0.1-0.4-0.1
				c-0.1,0-0.3,0-0.4,0.1c-0.1,0.1-0.1,0.1-0.1,0.2c0,0.1,0,0.2,0.1,0.3c0.1,0.1,0.2,0.1,0.4,0.1C44.6,9.9,44.7,9.9,44.8,9.9z
				 M44.1,9.1c0.1,0.1,0.2,0.1,0.3,0.1c0.1,0,0.2,0,0.3-0.1c0.1-0.1,0.1-0.1,0.1-0.2c0-0.1,0-0.2-0.1-0.2c-0.1-0.1-0.2-0.1-0.3-0.1
				c-0.1,0-0.2,0-0.3,0.1C44,8.7,44,8.8,44,8.9C44,9,44,9.1,44.1,9.1z"/>
		</g>
	</g>
</g>
</svg>
