<?xml version="1.0" encoding="utf-8"?>
<!-- Generator: Adobe Illustrator 22.1.0, SVG Export Plug-In . SVG Version: 6.00 Build 0)  -->
<svg version="1.1" id="Layer_1" xmlns="http://www.w3.org/2000/svg" xmlns:xlink="http://www.w3.org/1999/xlink" x="0px" y="0px"
	 viewBox="0 0 26.5 26.3" style="enable-background:new 0 0 26.5 26.3;" xml:space="preserve">
<style type="text/css">
	.st0{fill:#302F2D;}
</style>
<g>
	<path class="st0" d="M13.3,11c-1.2,0-2.2,1-2.2,2.2c0,1.2,1,2.2,2.2,2.2c1.2,0,2.2-1,2.2-2.2C15.4,12,14.5,11,13.3,11L13.3,11z
		 M13.3,11c-1.2,0-2.2,1-2.2,2.2c0,1.2,1,2.2,2.2,2.2c1.2,0,2.2-1,2.2-2.2C15.4,12,14.5,11,13.3,11L13.3,11z M16.9,7.4H9.6
		c-1.2,0-2.1,0.9-2.1,2.1v7.3c0,1.2,0.9,2.1,2.1,2.1h7.3c1.2,0,2.1-0.9,2.1-2.1V9.5C19,8.4,18.1,7.4,16.9,7.4L16.9,7.4z M13.3,17
		c-2.1,0-3.8-1.7-3.8-3.8c0-2.1,1.7-3.8,3.8-3.8c2.1,0,3.8,1.7,3.8,3.8C17.1,15.3,15.4,17,13.3,17L13.3,17z M17.2,10.2
		c-0.5,0-0.9-0.4-0.9-0.9c0-0.5,0.4-0.9,0.9-0.9c0.5,0,0.9,0.4,0.9,0.9C18.1,9.8,17.7,10.2,17.2,10.2L17.2,10.2z M13.3,11
		c-1.2,0-2.2,1-2.2,2.2c0,1.2,1,2.2,2.2,2.2c1.2,0,2.2-1,2.2-2.2C15.4,12,14.5,11,13.3,11L13.3,11z M16.9,7.4H9.6
		c-1.2,0-2.1,0.9-2.1,2.1v7.3c0,1.2,0.9,2.1,2.1,2.1h7.3c1.2,0,2.1-0.9,2.1-2.1V9.5C19,8.4,18.1,7.4,16.9,7.4L16.9,7.4z M13.3,17
		c-2.1,0-3.8-1.7-3.8-3.8c0-2.1,1.7-3.8,3.8-3.8c2.1,0,3.8,1.7,3.8,3.8C17.1,15.3,15.4,17,13.3,17L13.3,17z M17.2,10.2
		c-0.5,0-0.9-0.4-0.9-0.9c0-0.5,0.4-0.9,0.9-0.9c0.5,0,0.9,0.4,0.9,0.9C18.1,9.8,17.7,10.2,17.2,10.2L17.2,10.2z M13.3,11
		c-1.2,0-2.2,1-2.2,2.2c0,1.2,1,2.2,2.2,2.2c1.2,0,2.2-1,2.2-2.2C15.4,12,14.5,11,13.3,11L13.3,11z M2.3,2.2v22h22v-22H2.3z
		 M20.6,16.8c0,2-1.7,3.7-3.7,3.7H9.6c-2,0-3.7-1.7-3.7-3.7V9.5c0-2,1.7-3.7,3.7-3.7h7.3c2,0,3.7,1.7,3.7,3.7V16.8z M16.9,7.4H9.6
		c-1.2,0-2.1,0.9-2.1,2.1v7.3c0,1.2,0.9,2.1,2.1,2.1h7.3c1.2,0,2.1-0.9,2.1-2.1V9.5C19,8.4,18.1,7.4,16.9,7.4L16.9,7.4z M13.3,17
		c-2.1,0-3.8-1.7-3.8-3.8c0-2.1,1.7-3.8,3.8-3.8c2.1,0,3.8,1.7,3.8,3.8C17.1,15.3,15.4,17,13.3,17L13.3,17z M17.2,10.2
		c-0.5,0-0.9-0.4-0.9-0.9c0-0.5,0.4-0.9,0.9-0.9c0.5,0,0.9,0.4,0.9,0.9C18.1,9.8,17.7,10.2,17.2,10.2L17.2,10.2z M13.3,11
		c-1.2,0-2.2,1-2.2,2.2c0,1.2,1,2.2,2.2,2.2c1.2,0,2.2-1,2.2-2.2C15.4,12,14.5,11,13.3,11L13.3,11z M13.3,11c-1.2,0-2.2,1-2.2,2.2
		c0,1.2,1,2.2,2.2,2.2c1.2,0,2.2-1,2.2-2.2C15.4,12,14.5,11,13.3,11L13.3,11z M13.3,11c-1.2,0-2.2,1-2.2,2.2c0,1.2,1,2.2,2.2,2.2
		c1.2,0,2.2-1,2.2-2.2C15.4,12,14.5,11,13.3,11L13.3,11z M16.9,7.4H9.6c-1.2,0-2.1,0.9-2.1,2.1v7.3c0,1.2,0.9,2.1,2.1,2.1h7.3
		c1.2,0,2.1-0.9,2.1-2.1V9.5C19,8.4,18.1,7.4,16.9,7.4L16.9,7.4z M13.3,17c-2.1,0-3.8-1.7-3.8-3.8c0-2.1,1.7-3.8,3.8-3.8
		c2.1,0,3.8,1.7,3.8,3.8C17.1,15.3,15.4,17,13.3,17L13.3,17z M17.2,10.2c-0.5,0-0.9-0.4-0.9-0.9c0-0.5,0.4-0.9,0.9-0.9
		c0.5,0,0.9,0.4,0.9,0.9C18.1,9.8,17.7,10.2,17.2,10.2L17.2,10.2z M13.3,11c-1.2,0-2.2,1-2.2,2.2c0,1.2,1,2.2,2.2,2.2
		c1.2,0,2.2-1,2.2-2.2C15.4,12,14.5,11,13.3,11L13.3,11z M13.3,11c-1.2,0-2.2,1-2.2,2.2c0,1.2,1,2.2,2.2,2.2c1.2,0,2.2-1,2.2-2.2
		C15.4,12,14.5,11,13.3,11L13.3,11z M13.3,11c-1.2,0-2.2,1-2.2,2.2c0,1.2,1,2.2,2.2,2.2c1.2,0,2.2-1,2.2-2.2
		C15.4,12,14.5,11,13.3,11L13.3,11z M16.9,7.4H9.6c-1.2,0-2.1,0.9-2.1,2.1v7.3c0,1.2,0.9,2.1,2.1,2.1h7.3c1.2,0,2.1-0.9,2.1-2.1V9.5
		C19,8.4,18.1,7.4,16.9,7.4L16.9,7.4z M13.3,17c-2.1,0-3.8-1.7-3.8-3.8c0-2.1,1.7-3.8,3.8-3.8c2.1,0,3.8,1.7,3.8,3.8
		C17.1,15.3,15.4,17,13.3,17L13.3,17z M17.2,10.2c-0.5,0-0.9-0.4-0.9-0.9c0-0.5,0.4-0.9,0.9-0.9c0.5,0,0.9,0.4,0.9,0.9
		C18.1,9.8,17.7,10.2,17.2,10.2L17.2,10.2z M13.3,11c-1.2,0-2.2,1-2.2,2.2c0,1.2,1,2.2,2.2,2.2c1.2,0,2.2-1,2.2-2.2
		C15.4,12,14.5,11,13.3,11L13.3,11z M13.3,11"/>
</g>
</svg>
