<?xml version="1.0" encoding="utf-8"?>
<!-- Generator: Adobe Illustrator 22.1.0, SVG Export Plug-In . SVG Version: 6.00 Build 0)  -->
<svg version="1.1" id="Layer_1" xmlns="http://www.w3.org/2000/svg" xmlns:xlink="http://www.w3.org/1999/xlink" x="0px" y="0px"
	 viewBox="0 0 78.5 26" style="enable-background:new 0 0 78.5 26;" xml:space="preserve">
<style type="text/css">
	.st0{fill:#302F2D;}
</style>
<g>
	<path class="st0" d="M4.9,14.8V1.9 M4.9,1.9H3.8v12.9h1.1V1.9L4.9,1.9z M8.4,7.8c0-0.5,0.2-1,0.6-1.3c0.4-0.4,0.9-0.5,1.4-0.5
		c0.3,0,0.6,0,0.8,0.1c0.2,0.1,0.3,0.2,0.4,0.4c0.1,0.2,0.1,0.4,0.2,0.6c0,0.2,0,0.5,0,0.8v6.9h1V7.3c0-0.7-0.2-1.2-0.6-1.6
		c-0.4-0.4-1-0.6-1.6-0.6c-0.4,0-0.9,0.1-1.2,0.3C9,5.6,8.7,5.9,8.4,6.2h0V5.3h-1v9.5h1V7.8L8.4,7.8z M17.4,14.1
		c-0.2,0-0.4,0.1-0.5,0.1c-0.1,0-0.2,0-0.3-0.1c-0.2,0-0.3-0.1-0.4-0.3c-0.1-0.2-0.1-0.4-0.1-0.6v-7h1.3V5.3H16V2.5h-1v2.8h-0.9v0.9
		H15v7.1c0,0.5,0.1,0.8,0.2,1.1c0.1,0.2,0.4,0.4,0.8,0.6c0.1,0,0.2,0.1,0.4,0.1c0.2,0,0.5,0,0.8-0.1c0,0,0,0,0.1,0V14.1L17.4,14.1z
		 M23.8,9c0-0.5,0-1-0.1-1.4c-0.1-0.5-0.2-0.9-0.4-1.3c-0.2-0.4-0.5-0.7-0.8-0.9c-0.4-0.2-0.8-0.3-1.3-0.3c-0.6,0-1.1,0.2-1.5,0.5
		c-0.4,0.3-0.6,0.7-0.8,1.2c-0.2,0.5-0.3,1-0.3,1.6c-0.1,0.5-0.1,1.1-0.1,1.7c0,0.7,0,1.2,0.1,1.8c0.1,0.5,0.2,1,0.3,1.5
		c0.2,0.5,0.5,0.9,0.8,1.2c0.4,0.3,0.9,0.5,1.5,0.5c0.5,0,0.9-0.1,1.2-0.3c0.3-0.2,0.6-0.4,0.8-0.7c0.2-0.3,0.4-0.7,0.5-1.1
		c0.1-0.4,0.1-0.8,0.1-1.3h-1c0,0.3-0.1,0.7-0.1,0.9c0,0.3-0.1,0.5-0.2,0.8c-0.1,0.2-0.3,0.4-0.5,0.6c-0.2,0.1-0.5,0.2-0.8,0.2
		c-0.4,0-0.7-0.1-1-0.3c-0.2-0.2-0.4-0.5-0.5-0.9c-0.1-0.4-0.2-0.8-0.2-1.3c0-0.5-0.1-1-0.1-1.6h4.5V9L23.8,9z M19.3,9.1
		c0-0.4,0-0.7,0.1-1.1c0-0.3,0.1-0.7,0.2-1c0.1-0.3,0.3-0.6,0.5-0.8c0.2-0.2,0.5-0.3,0.9-0.3c0.4,0,0.7,0.1,0.9,0.3
		c0.2,0.2,0.4,0.5,0.5,0.8c0.1,0.3,0.2,0.7,0.2,1c0,0.3,0.1,0.7,0.1,1.1H19.3L19.3,9.1z M26.6,5.3h-0.9v9.5h1V8.6
		c0-0.8,0.2-1.4,0.6-1.8c0.4-0.4,0.9-0.7,1.7-0.7V5.1c-0.6,0-1,0.1-1.4,0.3c-0.4,0.2-0.6,0.6-0.9,1h0V5.3L26.6,5.3z M31.7,5.3h-1
		v9.5h1V5.3L31.7,5.3z M31.8,1.9h-1.2v1.6h1.2V1.9L31.8,1.9z M36.9,15.1c0.7,0,1.2-0.2,1.6-0.5c0.4-0.3,0.7-0.7,0.9-1.2
		c0.2-0.5,0.3-1,0.4-1.6c0.1-0.6,0.1-1.2,0.1-1.8c0-0.6,0-1.2-0.1-1.8c-0.1-0.6-0.2-1.1-0.4-1.6c-0.2-0.5-0.5-0.9-0.9-1.2
		c-0.4-0.3-0.9-0.4-1.6-0.4c-0.6,0-1.1,0.1-1.5,0.4c-0.4,0.3-0.7,0.7-0.9,1.1c-0.2,0.5-0.4,1-0.4,1.5c-0.1,0.5-0.1,1.1-0.1,1.7
		c0,0.7,0,1.4,0.1,1.9c0,0.5,0.2,1.1,0.4,1.6c0.2,0.5,0.5,0.9,0.9,1.2C35.7,14.9,36.2,15.1,36.9,15.1 M36.9,14.2
		c-0.4,0-0.8-0.1-1.1-0.4c-0.3-0.3-0.5-0.6-0.6-1c-0.1-0.4-0.2-0.9-0.2-1.3c0-0.5-0.1-1-0.1-1.6c0-0.4,0-0.9,0.1-1.3
		c0-0.4,0.1-0.8,0.2-1.2c0.1-0.4,0.3-0.7,0.6-1c0.3-0.3,0.6-0.4,1-0.4c0.5,0,0.9,0.1,1.2,0.4c0.3,0.3,0.5,0.6,0.6,1
		c0.1,0.4,0.2,0.8,0.3,1.3c0,0.4,0.1,0.9,0.1,1.4c0,0.5,0,1,0,1.4c0,0.4-0.1,0.9-0.2,1.3c-0.1,0.4-0.3,0.8-0.6,1
		C37.7,14.1,37.4,14.2,36.9,14.2 M42.9,5.3h-1v9.5h1V8.6c0-0.8,0.2-1.4,0.6-1.8c0.4-0.4,0.9-0.7,1.7-0.7V5.1c-0.6,0-1,0.1-1.4,0.3
		c-0.4,0.2-0.6,0.6-0.9,1h0V5.3L42.9,5.3z M49.2,5.9c0.4,0,0.8,0.1,1.1,0.3c0.3,0.2,0.5,0.5,0.6,0.9C51,7.6,51,8.1,51.1,8.5
		c0,0.5,0.1,1.1,0.1,1.8c0,0.5,0,0.9,0,1.3c0,0.4-0.1,0.8-0.2,1.2c-0.1,0.4-0.3,0.7-0.6,1c-0.3,0.3-0.6,0.4-1,0.4
		c-0.4,0-0.8-0.1-1.1-0.4c-0.3-0.3-0.5-0.6-0.6-1c-0.1-0.4-0.2-0.8-0.2-1.2c0-0.4,0-0.9,0-1.3c0-0.4,0-0.9,0-1.3
		c0-0.4,0.1-0.9,0.2-1.3c0.1-0.5,0.3-0.8,0.6-1.1C48.4,6.1,48.7,5.9,49.2,5.9 M51.1,6.2L51.1,6.2c-0.3-0.4-0.6-0.7-0.9-0.8
		c-0.3-0.2-0.7-0.3-1.2-0.3c-0.6,0-1.1,0.2-1.5,0.5c-0.4,0.3-0.6,0.8-0.8,1.3c-0.2,0.5-0.3,1.1-0.3,1.6c0,0.5-0.1,1.1-0.1,1.7
		c0,0.6,0,1.2,0.1,1.8c0.1,0.5,0.2,1,0.3,1.5c0.2,0.5,0.5,0.9,0.8,1.2c0.4,0.3,0.9,0.5,1.5,0.5c0.4,0,0.8-0.1,1.1-0.2
		c0.3-0.1,0.6-0.4,0.9-0.7h0.1c0,0,0,0.1,0,0.4c0,0.4,0,0.8-0.1,1c0,0.3-0.1,0.5-0.2,0.8c-0.1,0.2-0.3,0.4-0.6,0.6
		c-0.3,0.1-0.6,0.2-1.1,0.2c-0.4,0-0.8-0.1-1.1-0.4c-0.3-0.2-0.5-0.5-0.5-0.9h-1c0,0.7,0.3,1.3,0.8,1.6c0.5,0.4,1.1,0.5,1.8,0.5
		c1.1,0,1.8-0.3,2.3-0.9c0.4-0.6,0.7-1.5,0.7-2.6V5.3h-1V6.2L51.1,6.2z M57,15.1c0.7,0,1.2-0.2,1.6-0.5c0.4-0.3,0.7-0.7,0.9-1.2
		c0.2-0.5,0.3-1,0.4-1.6c0.1-0.6,0.1-1.2,0.1-1.8c0-0.6,0-1.2-0.1-1.8c-0.1-0.6-0.2-1.1-0.4-1.6c-0.2-0.5-0.5-0.9-0.9-1.2
		c-0.4-0.3-0.9-0.4-1.6-0.4c-0.6,0-1.1,0.1-1.5,0.4c-0.4,0.3-0.7,0.7-0.9,1.1c-0.2,0.5-0.4,1-0.4,1.5c-0.1,0.5-0.1,1.1-0.1,1.7
		c0,0.7,0,1.4,0.1,1.9c0,0.5,0.2,1.1,0.4,1.6c0.2,0.5,0.5,0.9,0.9,1.2C55.8,14.9,56.4,15.1,57,15.1 M57,14.2c-0.4,0-0.8-0.1-1.1-0.4
		c-0.3-0.3-0.5-0.6-0.6-1c-0.1-0.4-0.2-0.9-0.2-1.3c0-0.5-0.1-1-0.1-1.6c0-0.4,0-0.9,0.1-1.3c0-0.4,0.1-0.8,0.2-1.2
		c0.1-0.4,0.3-0.7,0.6-1c0.3-0.3,0.6-0.4,1-0.4c0.5,0,0.9,0.1,1.2,0.4c0.3,0.3,0.5,0.6,0.6,1C58.9,7.8,59,8.2,59,8.6
		c0,0.4,0.1,0.9,0.1,1.4c0,0.5,0,1,0,1.4c0,0.4-0.1,0.9-0.2,1.3c-0.1,0.4-0.3,0.8-0.6,1C57.9,14.1,57.5,14.2,57,14.2 M64.6,5.9
		c0.4,0,0.8,0.1,1,0.4c0.3,0.2,0.5,0.6,0.6,0.9c0.1,0.4,0.2,0.8,0.2,1.2c0,0.4,0.1,0.8,0.1,1.2c0,0.7,0,1.3-0.1,1.8
		c0,0.5-0.1,1-0.2,1.4c-0.1,0.4-0.3,0.8-0.6,1c-0.3,0.3-0.6,0.4-1,0.4c-0.4,0-0.8-0.1-1.1-0.4c-0.3-0.3-0.5-0.6-0.6-1
		c-0.1-0.4-0.2-0.8-0.3-1.2c0-0.4-0.1-0.9-0.1-1.3c0-0.5,0-1,0-1.4c0-0.4,0.1-0.9,0.2-1.3c0.1-0.5,0.3-0.8,0.6-1.1
		C63.8,6.1,64.1,5.9,64.6,5.9 M66.5,6.1L66.5,6.1c-0.3-0.3-0.6-0.6-0.9-0.8c-0.4-0.2-0.7-0.3-1.1-0.3c-0.6,0-1.1,0.2-1.5,0.5
		c-0.4,0.3-0.7,0.7-0.9,1.2c-0.2,0.5-0.3,1-0.4,1.6c-0.1,0.5-0.1,1.1-0.1,1.7c0,0.6,0,1.2,0.1,1.7c0.1,0.5,0.2,1.1,0.4,1.6
		c0.2,0.5,0.5,0.9,0.8,1.2c0.4,0.3,0.9,0.5,1.5,0.5c0.5,0,0.9-0.1,1.2-0.3c0.4-0.2,0.6-0.5,0.8-0.9h0v0.9h1V1.9h-1V6.1L66.5,6.1z
		 M73.2,11.4c0,0.4,0,0.8-0.1,1.2c-0.1,0.4-0.2,0.7-0.4,0.9c-0.3,0.5-0.8,0.7-1.4,0.7c-0.5,0-0.8-0.1-1-0.4
		c-0.2-0.3-0.3-0.7-0.3-1.2c0-0.6,0.1-1,0.2-1.2c0.2-0.3,0.5-0.5,1-0.7c0.1,0,0.3-0.1,0.5-0.2c0.7-0.3,1.2-0.5,1.5-0.7V11.4
		L73.2,11.4z M70.2,7.7c0-0.1,0-0.2,0.1-0.3c0-0.2,0.1-0.4,0.1-0.6c0-0.2,0.1-0.3,0.2-0.4c0.1-0.1,0.2-0.2,0.4-0.3
		c0.2-0.1,0.4-0.1,0.7-0.1c0.4,0,0.7,0.1,0.9,0.2c0.2,0.2,0.4,0.4,0.4,0.7c0,0.3,0.1,0.6,0.1,1c0,0.2,0,0.4,0,0.6
		c0,0.2-0.1,0.3-0.3,0.4c-0.3,0.1-0.7,0.3-1.3,0.5c-0.6,0.2-1,0.4-1.3,0.5c-0.5,0.2-0.8,0.6-1,1c-0.2,0.4-0.3,0.9-0.3,1.5
		c0,0.4,0,0.8,0.1,1.1c0.1,0.3,0.2,0.6,0.3,0.8c0.2,0.2,0.4,0.4,0.7,0.6c0.3,0.1,0.6,0.2,1.1,0.2c0.4,0,0.8-0.1,1.2-0.3
		c0.4-0.2,0.7-0.4,0.9-0.8h0l0,0.2c0,0.2,0.1,0.4,0.2,0.4c0.1,0.1,0.2,0.2,0.3,0.2c0.2,0,0.4,0.1,0.5,0.1c0.2,0,0.4,0,0.6-0.1v-0.7
		c-0.3,0-0.5,0-0.6-0.1c-0.1-0.1-0.1-0.3-0.1-0.5V7.7c0-0.4,0-0.8-0.1-1.1C74.1,6.3,74,6,73.8,5.8c-0.2-0.3-0.5-0.5-0.8-0.6
		c-0.3-0.1-0.7-0.2-1.2-0.2c-0.8,0-1.4,0.2-1.9,0.7c-0.4,0.4-0.7,1.1-0.7,2H70.2L70.2,7.7z"/>
	<path class="st0" d="M5.2,18.1c0.2-0.1,0.3-0.3,0.3-0.5c0-0.4-0.3-0.6-0.7-0.6h-1v2.2h1.1c0.6,0,0.8-0.3,0.8-0.6
		C5.6,18.3,5.4,18.2,5.2,18.1 M4.1,17.4h0.6c0.2,0,0.4,0.1,0.4,0.3C5.1,18,4.9,18,4.7,18H4.1V17.4L4.1,17.4z M4.8,19H4.1v-0.7h0.7
		c0.3,0,0.5,0.1,0.5,0.3C5.2,18.9,5.1,19,4.8,19"/>
	<path class="st0" d="M8,18.5H7.7C7.6,18.9,7.4,19,7.2,19c-0.5,0-0.6-0.5-0.6-0.8c0-0.4,0.1-0.8,0.6-0.8c0.3,0,0.5,0.2,0.5,0.5H8
		C8,17.5,7.8,17,7.2,17c-0.7,0-1.1,0.5-1.1,1.2c0,0.6,0.4,1.1,1,1.1C7.8,19.4,8,18.9,8,18.5"/>
	<path class="st0" d="M9.6,19C9.2,19,9,18.8,9,18.3h1.6c0-0.8-0.3-1.3-0.9-1.3c-0.7,0-1.1,0.5-1.1,1.2c0,0.6,0.4,1.1,1,1.1
		c0.4,0,0.5-0.1,0.6-0.2c0.3-0.2,0.4-0.5,0.4-0.6h-0.4C10.2,18.8,10,19,9.6,19 M9.6,17.4c0.4,0,0.6,0.3,0.6,0.7H9
		C9,17.7,9.3,17.4,9.6,17.4"/>
	<path class="st0" d="M13.1,17.1h-0.4l-0.6,1.8h0l-0.6-1.8h-0.4l0.8,2.3c-0.2,0.5-0.2,0.5-0.4,0.5c-0.1,0-0.2,0-0.2,0v0.3
		c0.1,0,0.1,0,0.2,0c0.5,0,0.5-0.1,0.9-0.9C12.6,18.5,12.9,17.8,13.1,17.1"/>
	<polygon class="st0" points="22.2,16.3 21.8,16.3 21.8,16.8 22.2,16.8 22.2,16.3 	"/>
	<polygon class="st0" points="21.5,16.3 21.1,16.3 21.1,16.8 21.5,16.8 21.5,16.3 	"/>
	<path class="st0" d="M36.8,16.2h-0.2c0,0.1-0.1,0.3-0.4,0.3c-0.2,0-0.3-0.1-0.4-0.1c-0.1-0.1-0.1-0.2-0.1-0.2h-0.2
		c0,0.1,0.1,0.6,0.6,0.6C36.5,16.8,36.7,16.7,36.8,16.2"/>
	<polygon class="st0" points="6.6,24 6.6,23.1 6.4,23.1 6.4,21.3 6,21.3 6,23.1 5.3,23.1 5.3,21.3 4.9,21.3 4.9,23.1 4.3,23.1 
		4.3,21.3 3.9,21.3 3.9,23.5 6.2,23.5 6.2,24 6.6,24 	"/>
	<path class="st0" d="M8.1,21.2c-0.7,0-1,0.6-1,1.2c0,0.6,0.3,1.2,1,1.2c0.7,0,1-0.6,1-1.2C9.1,21.8,8.8,21.2,8.1,21.2 M8.1,23.2
		c-0.5,0-0.6-0.5-0.6-0.8c0-0.3,0.1-0.8,0.6-0.8c0.5,0,0.6,0.5,0.6,0.8C8.7,22.6,8.6,23.2,8.1,23.2"/>
	<path class="st0" d="M10.8,21.2c-0.4,0-0.6,0.2-0.7,0.4h0v-0.3H9.8v3.1h0.4v-1.1h0c0.1,0.2,0.3,0.3,0.6,0.3c0.7,0,1-0.7,1-1.2
		C11.8,21.7,11.4,21.2,10.8,21.2 M10.8,23.2c-0.2,0-0.6-0.2-0.6-0.7c0-0.4,0.1-0.9,0.6-0.9c0.6,0,0.6,0.5,0.6,0.8
		C11.4,22.8,11.2,23.2,10.8,23.2"/>
	<polygon class="st0" points="12.8,21.3 12.5,21.3 12.5,23.5 12.8,23.5 12.8,21.3 	"/>
	<polygon class="st0" points="12.8,20.4 12.5,20.4 12.5,20.9 12.8,20.9 12.8,20.4 	"/>
	<polygon class="st0" points="15.5,17.1 15,17.1 14.1,18 14.1,17.1 13.7,17.1 13.7,19.3 14.1,19.3 14.1,18.5 14.3,18.3 15.1,19.3 
		15.5,19.3 14.5,18 15.5,17.1 	"/>
	<path class="st0" d="M16.5,19.1L16.5,19.1c0.1,0.2,0.3,0.3,0.6,0.3c0.7,0,1-0.7,1-1.2c0-0.6-0.3-1.1-0.9-1.1
		c-0.4,0-0.6,0.2-0.7,0.4h0v-0.3h-0.3v3.1h0.4V19.1L16.5,19.1z M17.1,17.4c0.6,0,0.6,0.5,0.6,0.8c0,0.5-0.2,0.8-0.6,0.8
		c-0.2,0-0.6-0.2-0.6-0.7C16.5,18,16.5,17.4,17.1,17.4"/>
	<path class="st0" d="M20.1,19c0,0.2,0.1,0.3,0.4,0.3c0.1,0,0.1,0,0.2,0V19c0,0-0.1,0-0.1,0c-0.1,0-0.1,0-0.1-0.1v-1.3
		c0-0.6-0.6-0.6-0.8-0.6c-0.5,0-0.9,0.2-0.9,0.7h0.3c0-0.2,0.1-0.4,0.5-0.4c0.3,0,0.5,0.1,0.5,0.4c0,0.2-0.1,0.3-0.2,0.3L19.3,18
		c-0.6,0.1-0.7,0.5-0.7,0.7c0,0.4,0.3,0.6,0.7,0.6C19.7,19.4,19.9,19.2,20.1,19 M19,18.7c0-0.3,0.3-0.3,0.5-0.4
		c0.5-0.1,0.6-0.1,0.6-0.1v0.4c0,0.3-0.3,0.5-0.7,0.5C19.1,19.1,19,18.9,19,18.7"/>
	<polygon class="st0" points="21.8,17.1 21.5,17.1 21.5,19.3 21.8,19.3 21.8,17.1 	"/>
	<polygon class="st0" points="24.2,18 23.2,18 23.2,17.1 22.8,17.1 22.8,19.3 23.2,19.3 23.2,18.3 24.2,18.3 24.2,19.3 24.6,19.3 
		24.6,17.1 24.2,17.1 24.2,18 	"/>
	<path class="st0" d="M26.3,17.4c0.3,0,0.5,0.2,0.5,0.5h0.4c0-0.4-0.2-0.8-0.8-0.8c-0.7,0-1.1,0.5-1.1,1.2c0,0.6,0.4,1.1,1,1.1
		c0.6,0,0.9-0.5,0.9-0.8h-0.4c-0.1,0.3-0.3,0.5-0.5,0.5c-0.5,0-0.6-0.5-0.6-0.8C25.7,17.8,25.8,17.4,26.3,17.4"/>
	<path class="st0" d="M29.5,18.7c0-0.4-0.2-0.6-0.7-0.6h-0.6v-0.9h-0.4v2.2h0.9C29.3,19.3,29.5,19,29.5,18.7 M28.2,19v-0.7h0.5
		c0.3,0,0.4,0.1,0.4,0.3c0,0.2-0.1,0.3-0.4,0.3H28.2L28.2,19z"/>
	<polygon class="st0" points="30.6,18.5 30.8,18.3 31.6,19.3 32,19.3 31,18 32,17.1 31.5,17.1 30.6,18 30.6,17.1 30.2,17.1 
		30.2,19.3 30.6,19.3 30.6,18.5 	"/>
	<polygon class="st0" points="34,17.7 34,17.7 34,19.3 34.4,19.3 34.4,17.1 33.9,17.1 33,18.8 33,18.8 33,17.1 32.6,17.1 32.6,19.3 
		33,19.3 34,17.7 	"/>
	<polygon class="st0" points="36.6,17.7 36.6,19.3 37,19.3 37,17.1 36.6,17.1 35.6,18.8 35.6,18.8 35.6,17.1 35.2,17.1 35.2,19.3 
		35.7,19.3 36.6,17.7 36.6,17.7 	"/>
	<path class="st0" d="M15.1,22.2c0,0-0.4,0.2-0.6,0.2c-0.2,0-0.4-0.1-0.4-0.3v-0.7h-0.4V22c0,0.4,0.3,0.6,0.7,0.6
		c0.4,0,0.7-0.2,0.7-0.2v1h0.4v-2.2h-0.4V22.2L15.1,22.2z"/>
	<polygon class="st0" points="17.7,22.2 16.7,22.2 16.7,21.3 16.3,21.3 16.3,23.5 16.7,23.5 16.7,22.5 17.7,22.5 17.7,23.5 
		18.1,23.5 18.1,21.3 17.7,21.3 17.7,22.2 	"/>
	<polygon class="st0" points="19.3,22.9 19.3,22.9 19.3,21.3 18.9,21.3 18.9,23.5 19.4,23.5 20.3,21.8 20.3,21.8 20.3,23.5 
		20.7,23.5 20.7,21.3 20.2,21.3 19.3,22.9 	"/>
	<path class="st0" d="M22.4,21c0.4,0,0.6-0.2,0.7-0.6h-0.2c0,0.1-0.1,0.3-0.4,0.3c-0.2,0-0.3-0.1-0.4-0.1C22,20.5,22,20.4,22,20.4
		h-0.2C21.8,20.5,21.9,21,22.4,21"/>
	<polygon class="st0" points="21.9,22.9 21.9,22.9 21.9,21.3 21.6,21.3 21.6,23.5 22,23.5 22.9,21.8 22.9,21.8 22.9,23.5 23.3,23.5 
		23.3,21.3 22.9,21.3 21.9,22.9 	"/>
	<path class="st0" d="M26.7,23.1v-1.3c0-0.6-0.6-0.6-0.8-0.6c-0.5,0-0.9,0.2-0.9,0.7h0.3c0-0.2,0.1-0.4,0.5-0.4
		c0.3,0,0.5,0.1,0.5,0.4c0,0.2-0.1,0.3-0.2,0.3l-0.6,0.1c-0.6,0.1-0.7,0.5-0.7,0.7c0,0.4,0.3,0.6,0.7,0.6c0.4,0,0.7-0.2,0.8-0.4
		c0,0.2,0.1,0.3,0.4,0.3c0.1,0,0.1,0,0.2,0v-0.3c0,0-0.1,0-0.1,0C26.8,23.2,26.7,23.2,26.7,23.1 M26.4,22.7c0,0.3-0.3,0.5-0.7,0.5
		c-0.3,0-0.4-0.1-0.4-0.4c0-0.3,0.3-0.3,0.5-0.4c0.5-0.1,0.6-0.1,0.6-0.1V22.7L26.4,22.7z"/>
	<path class="st0" d="M28.7,21.2c-0.4,0-0.6,0.2-0.7,0.4h0v-0.3h-0.3v3.1H28v-1.1h0c0.1,0.2,0.3,0.3,0.6,0.3c0.7,0,1-0.7,1-1.2
		C29.6,21.7,29.3,21.2,28.7,21.2 M28.6,23.2c-0.2,0-0.6-0.2-0.6-0.7c0-0.4,0.1-0.9,0.6-0.9c0.6,0,0.6,0.5,0.6,0.8
		C29.2,22.8,29,23.2,28.6,23.2"/>
	<polygon class="st0" points="32,21.3 31.6,21.3 31.1,22 30.6,21.3 30.1,21.3 30.8,22.3 30.1,23.5 30.5,23.5 31,22.6 31.6,23.5 
		32.1,23.5 31.3,22.3 32,21.3 	"/>
	<polygon class="st0" points="32.7,23.5 33,23.5 33,21.3 32.7,21.3 32.7,23.5 	"/>
	<polygon class="st0" points="33.7,21.6 34.4,21.6 34.4,23.5 34.7,23.5 34.7,21.6 35.4,21.6 35.4,21.3 33.7,21.3 33.7,21.6 	"/>
	<path class="st0" d="M37,21.2c-0.7,0-1.1,0.5-1.1,1.2c0,0.6,0.4,1.1,1,1.1c0.4,0,0.5-0.1,0.6-0.2c0.3-0.2,0.4-0.5,0.4-0.6h-0.4
		c0,0.2-0.2,0.4-0.6,0.4c-0.4,0-0.6-0.3-0.6-0.7h1.6C37.9,21.7,37.6,21.2,37,21.2 M36.3,22.2c0-0.3,0.3-0.7,0.6-0.7
		c0.4,0,0.6,0.3,0.6,0.7H36.3L36.3,22.2z"/>
	<polygon class="st0" points="40.4,21.3 40,21.3 39,22.2 39,21.3 38.7,21.3 38.7,23.5 39,23.5 39,22.6 39.2,22.4 40,23.5 40.5,23.5 
		39.5,22.2 40.4,21.3 	"/>
	<polygon class="st0" points="40.8,21.6 41.5,21.6 41.5,23.5 41.9,23.5 41.9,21.6 42.6,21.6 42.6,21.3 40.8,21.3 40.8,21.6 	"/>
	<path class="st0" d="M44,23L44,23l-0.6-1.8H43l0.8,2.3C43.6,24,43.6,24,43.4,24c-0.1,0-0.2,0-0.2,0v0.3c0.1,0,0.1,0,0.2,0
		c0.5,0,0.5-0.1,0.9-0.9c0.3-0.7,0.5-1.4,0.8-2.2h-0.4L44,23L44,23z"/>
	<path class="st0" d="M46.6,21.2c-0.4,0-0.6,0.2-0.7,0.4h0v-0.3h-0.3v3.1H46v-1.1h0c0.1,0.2,0.3,0.3,0.6,0.3c0.7,0,1-0.7,1-1.2
		C47.5,21.7,47.2,21.2,46.6,21.2 M46.6,23.2c-0.2,0-0.6-0.2-0.6-0.7c0-0.4,0.1-0.9,0.6-0.9c0.6,0,0.6,0.5,0.6,0.8
		C47.1,22.8,47,23.2,46.6,23.2"/>
	<polygon class="st0" points="49.6,22.2 48.6,22.2 48.6,21.3 48.2,21.3 48.2,23.5 48.6,23.5 48.6,22.5 49.6,22.5 49.6,23.5 50,23.5 
		50,21.3 49.6,21.3 49.6,22.2 	"/>
	<polygon class="st0" points="51.2,22.9 51.2,22.9 51.2,21.3 50.9,21.3 50.9,23.5 51.3,23.5 52.2,21.8 52.3,21.8 52.3,23.5 
		52.6,23.5 52.6,21.3 52.2,21.3 51.2,22.9 	"/>
	<path class="st0" d="M54.3,21c0.4,0,0.6-0.2,0.7-0.6h-0.2c0,0.1-0.1,0.3-0.4,0.3c-0.2,0-0.3-0.1-0.4-0.1c-0.1-0.1-0.1-0.2-0.1-0.2
		h-0.2C53.7,20.5,53.8,21,54.3,21"/>
	<polygon class="st0" points="53.9,22.9 53.9,22.9 53.9,21.3 53.5,21.3 53.5,23.5 53.9,23.5 54.9,21.8 54.9,21.8 54.9,23.5 
		55.2,23.5 55.2,21.3 54.8,21.3 53.9,22.9 	"/>
	<polygon class="st0" points="59.9,21.3 59.4,21.3 58.5,22.2 58.5,21.3 58.1,21.3 58.1,23.5 58.5,23.5 58.5,22.6 58.7,22.4 
		59.5,23.5 60,23.5 58.9,22.2 59.9,21.3 	"/>
	<path class="st0" d="M61.4,21.2c-0.7,0-1,0.6-1,1.2c0,0.6,0.3,1.2,1,1.2c0.7,0,1-0.6,1-1.2C62.4,21.8,62.1,21.2,61.4,21.2
		 M61.4,23.2c-0.5,0-0.6-0.5-0.6-0.8c0-0.3,0.1-0.8,0.6-0.8c0.5,0,0.6,0.5,0.6,0.8C62.1,22.6,61.9,23.2,61.4,23.2"/>
	<polygon class="st0" points="64.6,22.2 63.5,22.2 63.5,21.3 63.2,21.3 63.2,23.5 63.5,23.5 63.5,22.5 64.6,22.5 64.6,23.5 
		64.9,23.5 64.9,21.3 64.6,21.3 64.6,22.2 	"/>
	<polygon class="st0" points="67.5,21.3 67.1,21.3 66.1,22.2 66.1,21.3 65.8,21.3 65.8,23.5 66.1,23.5 66.1,22.6 66.3,22.4 
		67.1,23.5 67.6,23.5 66.6,22.2 67.5,21.3 	"/>
	<path class="st0" d="M68.9,23L68.9,23l-0.6-1.8h-0.4l0.8,2.3C68.6,24,68.5,24,68.4,24c-0.1,0-0.2,0-0.2,0v0.3c0.1,0,0.1,0,0.2,0
		c0.5,0,0.5-0.1,0.9-0.9c0.3-0.7,0.5-1.4,0.8-2.2h-0.4L68.9,23L68.9,23z"/>
	<path class="st0" d="M71.6,21.2c-0.4,0-0.6,0.2-0.7,0.4h0v-0.3h-0.3v3.1h0.4v-1.1h0c0.1,0.2,0.3,0.3,0.6,0.3c0.7,0,1-0.7,1-1.2
		C72.5,21.7,72.1,21.2,71.6,21.2 M71.5,23.2c-0.2,0-0.6-0.2-0.6-0.7c0-0.4,0.1-0.9,0.6-0.9c0.6,0,0.6,0.5,0.6,0.8
		C72.1,22.8,71.9,23.2,71.5,23.2"/>
	<path class="st0" d="M74,23.2c-0.5,0-0.6-0.5-0.6-0.8c0-0.4,0.1-0.8,0.6-0.8c0.3,0,0.5,0.2,0.5,0.5h0.4c0-0.4-0.2-0.8-0.8-0.8
		c-0.7,0-1.1,0.5-1.1,1.2c0,0.6,0.4,1.1,1,1.1c0.6,0,0.9-0.5,0.9-0.8h-0.4C74.5,23,74.3,23.2,74,23.2"/>
</g>
</svg>
