<?xml version="1.0" encoding="utf-8"?>
<!-- Generator: Adobe Illustrator 22.1.0, SVG Export Plug-In . SVG Version: 6.00 Build 0)  -->
<svg version="1.1" id="Layer_1" xmlns="http://www.w3.org/2000/svg" xmlns:xlink="http://www.w3.org/1999/xlink" x="0px" y="0px"
	 viewBox="0 0 26.5 26.3" style="enable-background:new 0 0 26.5 26.3;" xml:space="preserve">
<style type="text/css">
	.st0{fill:#302F2D;}
</style>
<path class="st0" d="M2.3,2.3v21.9h21.9V2.3H2.3z M9,20.6H5.6v-9.9H9V20.6z M7.3,9.4L7.3,9.4c-1.1,0-1.9-0.8-1.9-1.7
	c0-1,0.7-1.7,1.9-1.7c1.1,0,1.8,0.7,1.8,1.7C9.2,8.6,8.5,9.4,7.3,9.4z M20.9,20.6h-3.3v-5.3c0-1.3-0.5-2.2-1.7-2.2
	c-0.9,0-1.5,0.6-1.7,1.2c-0.1,0.2-0.1,0.5-0.1,0.8v5.5h-3.3c0,0,0-9,0-9.9h3.3v1.4c0.4-0.7,1.2-1.6,3-1.6c2.2,0,3.8,1.4,3.8,4.5
	V20.6z"/>
<path class="st0" d="M14.1,12.2L14.1,12.2C14.1,12.1,14.1,12.2,14.1,12.2L14.1,12.2z"/>
</svg>
