<?xml version="1.0" encoding="utf-8"?>
<!-- Generator: Adobe Illustrator 22.1.0, SVG Export Plug-In . SVG Version: 6.00 Build 0)  -->
<svg version="1.1" id="Layer_1" xmlns="http://www.w3.org/2000/svg" xmlns:xlink="http://www.w3.org/1999/xlink" x="0px" y="0px"
	 viewBox="0 0 101.1 18.9" style="enable-background:new 0 0 101.1 18.9;" xml:space="preserve">
<style type="text/css">
	.st0{fill:#302F2D;}
</style>
<g>
	<g>
		<path class="st0" d="M32.1,13V9.1L30,11.6l-2.1-2.5V13h-1.1V6.2L30,10l3.2-3.7V13H32.1z"/>
		<path class="st0" d="M37.5,9H40v1h-2.5v2.1h3v1h-3h-1.1V6.2h1.1h3v1h-3V9z"/>
		<path class="st0" d="M47.7,7.2h-1.9V13h-1.1V7.2h-1.9v-1h4.8V7.2z"/>
		<path class="st0" d="M55.2,13H54l-1.7-2.3h-0.8V13h-1.1V6.2h0.9h1.1c0.9,0,1.4,0.4,1.7,0.7c0.4,0.4,0.5,0.9,0.5,1.6
			c0,0.6-0.2,1.2-0.5,1.6c-0.2,0.2-0.4,0.4-0.8,0.5L55.2,13z M52.4,9.8c0.4,0,0.8-0.1,1-0.4c0.3-0.3,0.3-0.7,0.3-0.9
			c0-0.3,0-0.7-0.3-0.9c-0.2-0.2-0.5-0.4-1-0.4h-1v2.6H52.4z"/>
		<path class="st0" d="M59.7,12.8c-0.4-0.2-0.8-0.4-1.1-0.7c-0.3-0.3-0.6-0.7-0.7-1.1c-0.2-0.4-0.3-0.9-0.3-1.3
			c0-0.5,0.1-0.9,0.3-1.3c0.2-0.4,0.4-0.8,0.7-1.1c0.3-0.3,0.7-0.5,1.1-0.7s0.9-0.3,1.3-0.3c0.5,0,0.9,0.1,1.3,0.3
			c0.4,0.2,0.8,0.4,1.1,0.7c0.3,0.3,0.5,0.7,0.7,1.1c0.2,0.4,0.3,0.9,0.3,1.3c0,0.5-0.1,0.9-0.3,1.3c-0.2,0.4-0.4,0.8-0.7,1.1
			c-0.3,0.3-0.7,0.6-1.1,0.7C62,12.9,61.5,13,61.1,13C60.6,13,60.1,12.9,59.7,12.8z M59.4,8c-0.4,0.4-0.7,1-0.7,1.6
			c0,0.6,0.2,1.2,0.7,1.6c0.4,0.4,1,0.7,1.6,0.7c0.6,0,1.2-0.2,1.6-0.7c0.4-0.4,0.7-1,0.7-1.6c0-0.6-0.2-1.2-0.7-1.6
			c-0.4-0.4-1-0.7-1.6-0.7C60.4,7.3,59.8,7.5,59.4,8z"/>
		<path class="st0" d="M68.5,8.9V13h-1.1V6.2l4,4.1V6.2h1.1V13L68.5,8.9z"/>
		<path class="st0" d="M77.4,12.8c-0.4-0.2-0.8-0.4-1.1-0.7c-0.3-0.3-0.6-0.7-0.7-1.1s-0.3-0.9-0.3-1.3c0-0.5,0.1-0.9,0.3-1.3
			c0.2-0.4,0.4-0.8,0.7-1.1c0.3-0.3,0.7-0.5,1.1-0.7c0.4-0.2,0.9-0.3,1.3-0.3c0.5,0,0.9,0.1,1.3,0.3c0.4,0.2,0.8,0.4,1.1,0.7
			c0.3,0.3,0.5,0.7,0.7,1.1c0.2,0.4,0.3,0.9,0.3,1.3c0,0.5-0.1,0.9-0.3,1.3c-0.2,0.4-0.4,0.8-0.7,1.1c-0.3,0.3-0.7,0.6-1.1,0.7
			c-0.4,0.2-0.9,0.3-1.3,0.3C78.3,13,77.8,12.9,77.4,12.8z M77.1,8c-0.4,0.4-0.7,1-0.7,1.6c0,0.6,0.2,1.2,0.7,1.6
			c0.4,0.4,1,0.7,1.6,0.7c0.6,0,1.2-0.2,1.6-0.7c0.4-0.4,0.7-1,0.7-1.6C81,9,80.8,8.4,80.4,8c-0.4-0.4-1-0.7-1.6-0.7
			C78.1,7.3,77.5,7.5,77.1,8z"/>
		<path class="st0" d="M90.4,13V9.1l-2.1,2.5l-2.1-2.5V13h-1.1V6.2l3.2,3.7l3.2-3.7V13H90.4z"/>
		<path class="st0" d="M95.8,9h2.5v1h-2.5v2.1h3v1h-3h-1.1V6.2h1.1h3v1h-3V9z"/>
	</g>
	<g>
		<path class="st0" d="M13.1,13.3V8.6l-2.6,3L8,8.6v4.7H6.7V5.1l3.8,4.5l3.8-4.5v8.2H13.1z"/>
	</g>
	<g>
		<path class="st0" d="M18.9,17.7H2.3V1.1h16.6V17.7z M4.3,15.7h12.6V3.1H4.3V15.7z"/>
	</g>
</g>
</svg>
