<?xml version="1.0" encoding="utf-8"?>
<!-- Generator: Adobe Illustrator 22.1.0, SVG Export Plug-In . SVG Version: 6.00 Build 0)  -->
<svg version="1.1" id="Layer_1" xmlns="http://www.w3.org/2000/svg" xmlns:xlink="http://www.w3.org/1999/xlink" x="0px" y="0px"
	 viewBox="0 0 57.1 26.3" style="enable-background:new 0 0 57.1 26.3;" xml:space="preserve">
<style type="text/css">
	.st0{fill:#302F2D;}
</style>
<path class="st0" d="M14.1,12.2L14.1,12.2C14.1,12.1,14.1,12.2,14.1,12.2L14.1,12.2z"/>
<g>
	<g>
		<path class="st0" d="M1.6,9.6c0-0.8,0.2-1.6,0.5-2.4c0.3-0.8,0.8-1.5,1.4-2.1C4.2,4.4,4.9,4,5.6,3.6C6.4,3.3,7.2,3.2,8,3.2
			c0.9,0,1.7,0.2,2.4,0.5c0.7,0.3,1.4,0.8,2.1,1.5c0.6,0.6,1.1,1.3,1.4,2.1c0.3,0.8,0.5,1.6,0.5,2.4c0,0.8-0.2,1.6-0.5,2.4
			c-0.3,0.8-0.8,1.5-1.4,2.1c-0.6,0.7-1.3,1.1-2.1,1.5C9.7,15.9,8.9,16,8,16c-0.9,0-1.7-0.2-2.4-0.5c-0.7-0.3-1.4-0.8-2.1-1.5
			c-0.6-0.6-1.1-1.3-1.4-2.1C1.8,11.2,1.6,10.4,1.6,9.6z M5.3,9.6c0,1.6,0,2.7,0.1,3.3c0.1,0.6,0.1,1,0.3,1.3c0.2,0.5,0.5,0.8,0.8,1
			c0.4,0.2,0.9,0.3,1.5,0.3c0.6,0,1.1-0.1,1.5-0.3c0.4-0.2,0.6-0.5,0.8-1c0.1-0.3,0.2-0.8,0.3-1.4c0.1-0.6,0.1-1.7,0.1-3.2
			c0-1.5,0-2.5-0.1-3.2c-0.1-0.6-0.2-1.1-0.3-1.4c-0.2-0.5-0.5-0.8-0.8-1C9.2,3.8,8.7,3.7,8,3.7C7.4,3.7,6.9,3.8,6.5,4
			C6.2,4.2,5.9,4.5,5.7,5C5.6,5.3,5.5,5.7,5.4,6.3C5.4,6.9,5.3,8,5.3,9.6z"/>
		<path class="st0" d="M16.4,15.1h1.5V4h-1.5V3.4h6.4c1.7,0,3,0.3,3.9,0.8C27.5,4.7,28,5.5,28,6.6c0,1.1-0.4,2-1.3,2.5
			c-0.9,0.6-2.2,0.8-3.9,0.8H21v5.2h1.8v0.6h-6.4V15.1z M21,4v5.5h1.7c0.7,0,1.2-0.1,1.4-0.4c0.2-0.3,0.3-1.1,0.3-2.4
			c0-1.2-0.1-1.9-0.3-2.2C23.9,4.1,23.5,4,22.7,4H21z"/>
		<path class="st0" d="M29.4,15.8v-0.6h1.5V4h-1.3V3.4h10.3l0,3.3h-0.6c-0.4-1.1-0.8-1.8-1.3-2.1C37.6,4.2,37,4,36.2,4H34V9
			c0,0,0.1,0,0.2,0c0.1,0,0.2,0,0.3,0c0.7,0,1.2-0.2,1.5-0.5c0.3-0.4,0.6-0.9,0.7-1.7h0.6v5.3h-0.6c-0.1-0.9-0.3-1.5-0.6-1.8
			c-0.4-0.4-0.9-0.6-1.7-0.6H34v5.5h2.1c1,0,1.8-0.3,2.4-0.8c0.6-0.5,1-1.4,1.4-2.7h0.6l-0.1,4.1H29.4z"/>
		<path class="st0" d="M41.8,15.8v-0.6h0.9c0.3,0,0.5,0,0.6-0.1c0.1-0.1,0.3-0.3,0.6-0.6l2.9-4.2L42.9,4h-1.1V3.4h6V4h-1.3l2.1,3.6
			l2.1-3.1c0,0,0,0,0,0c0.1-0.1,0.1-0.2,0.1-0.2c0-0.1,0-0.1-0.1-0.2C50.8,4,50.7,4,50.5,4h-1.2V3.4h4.2V4h-0.8
			c-0.4,0-0.7,0-0.8,0.1c-0.2,0.1-0.3,0.2-0.5,0.5L49,8l4.3,7.1h1v0.6h-6v-0.6h1.3l-2.6-4.4l-2.3,3.6c0,0.1-0.1,0.2-0.1,0.3
			c0,0.1,0,0.2,0,0.2c0,0.1,0,0.2,0.1,0.2c0.1,0.1,0.2,0.1,0.4,0.1h1.1v0.6H41.8z"/>
	</g>
	<g>
		<path class="st0" d="M5.4,21.3c0,0.4-0.1,0.7-0.2,1c-0.1,0.3-0.3,0.5-0.5,0.6c-0.2,0.1-0.5,0.2-0.8,0.2c-0.3,0-0.6-0.1-0.8-0.2
			c-0.2-0.1-0.4-0.3-0.5-0.6c-0.1-0.3-0.2-0.6-0.2-0.9v-0.3c0-0.4,0.1-0.7,0.2-0.9c0.1-0.3,0.3-0.5,0.5-0.6c0.2-0.1,0.5-0.2,0.8-0.2
			c0.3,0,0.6,0.1,0.8,0.2c0.2,0.1,0.4,0.4,0.5,0.6c0.1,0.3,0.2,0.6,0.2,1V21.3z M4.9,21.1c0-0.4-0.1-0.8-0.3-1
			c-0.2-0.2-0.4-0.4-0.7-0.4c-0.3,0-0.6,0.1-0.7,0.4c-0.2,0.2-0.3,0.6-0.3,1v0.3c0,0.4,0.1,0.8,0.3,1c0.2,0.2,0.4,0.4,0.7,0.4
			c0.3,0,0.6-0.1,0.7-0.3c0.2-0.2,0.3-0.6,0.3-1V21.1z"/>
		<path class="st0" d="M6.6,21.6V23H6.2v-3.7h1.4c0.4,0,0.7,0.1,1,0.3c0.2,0.2,0.3,0.5,0.3,0.8c0,0.4-0.1,0.6-0.3,0.8
			c-0.2,0.2-0.5,0.3-1,0.3H6.6z M6.6,21.2h0.9c0.3,0,0.5-0.1,0.6-0.2c0.1-0.1,0.2-0.3,0.2-0.5c0-0.2-0.1-0.4-0.2-0.5
			c-0.1-0.1-0.3-0.2-0.6-0.2H6.6V21.2z"/>
		<path class="st0" d="M11.6,21.3H10v1.3h1.9V23H9.5v-3.7h2.3v0.4H10v1.2h1.6V21.3z"/>
		<path class="st0" d="M13.9,21.6H13V23h-0.5v-3.7h1.2c0.4,0,0.7,0.1,1,0.3c0.2,0.2,0.3,0.5,0.3,0.8c0,0.2-0.1,0.4-0.2,0.6
			c-0.1,0.2-0.3,0.3-0.5,0.4l0.9,1.6v0h-0.5L13.9,21.6z M13,21.2h0.8c0.2,0,0.4-0.1,0.6-0.2c0.1-0.1,0.2-0.3,0.2-0.5
			c0-0.2-0.1-0.4-0.2-0.5c-0.1-0.1-0.3-0.2-0.6-0.2H13V21.2z"/>
		<path class="st0" d="M17.8,22.1h-1.6l-0.3,1h-0.5l1.4-3.7h0.4l1.4,3.7h-0.5L17.8,22.1z M16.4,21.7h1.3L17,19.9L16.4,21.7z"/>
		<path class="st0" d="M21.5,19.7h-1.2V23h-0.5v-3.3h-1.2v-0.4h2.9V19.7z"/>
		<path class="st0" d="M22.6,23h-0.5v-3.7h0.5V23z"/>
		<path class="st0" d="M26.4,23h-0.5L24,20.2V23h-0.5v-3.7H24l1.9,2.9v-2.9h0.5V23z"/>
		<path class="st0" d="M30,22.6c-0.1,0.2-0.3,0.3-0.5,0.4c-0.2,0.1-0.5,0.1-0.8,0.1c-0.3,0-0.6-0.1-0.8-0.2
			c-0.2-0.1-0.4-0.3-0.5-0.6c-0.1-0.3-0.2-0.6-0.2-0.9v-0.3c0-0.6,0.1-1,0.4-1.3c0.3-0.3,0.6-0.5,1.1-0.5c0.4,0,0.7,0.1,0.9,0.3
			c0.2,0.2,0.4,0.5,0.4,0.8h-0.5c-0.1-0.5-0.4-0.7-0.9-0.7c-0.3,0-0.6,0.1-0.7,0.3c-0.2,0.2-0.3,0.6-0.3,1v0.3c0,0.4,0.1,0.7,0.3,1
			c0.2,0.2,0.4,0.4,0.8,0.4c0.2,0,0.3,0,0.5-0.1c0.1,0,0.3-0.1,0.3-0.2v-0.8h-0.9v-0.4H30V22.6z"/>
		<path class="st0" d="M34.3,21.3h-1.6v1.3h1.9V23h-2.4v-3.7h2.3v0.4h-1.8v1.2h1.6V21.3z"/>
		<path class="st0" d="M36.5,20.8l0.9-1.4h0.6l-1.2,1.8l1.2,1.9h-0.6l-0.9-1.4L35.5,23H35l1.2-1.9L35,19.3h0.6L36.5,20.8z"/>
		<path class="st0" d="M39.1,21.6V23h-0.5v-3.7h1.4c0.4,0,0.7,0.1,1,0.3c0.2,0.2,0.3,0.5,0.3,0.8c0,0.4-0.1,0.6-0.3,0.8
			c-0.2,0.2-0.5,0.3-1,0.3H39.1z M39.1,21.2h0.9c0.3,0,0.5-0.1,0.6-0.2c0.1-0.1,0.2-0.3,0.2-0.5c0-0.2-0.1-0.4-0.2-0.5
			c-0.1-0.1-0.3-0.2-0.6-0.2h-0.9V21.2z"/>
		<path class="st0" d="M44,21.3h-1.6v1.3h1.9V23h-2.4v-3.7h2.3v0.4h-1.8v1.2H44V21.3z"/>
		<path class="st0" d="M47.8,23h-0.5l-1.9-2.9V23h-0.5v-3.7h0.5l1.9,2.9v-2.9h0.5V23z"/>
		<path class="st0" d="M49.8,21.4c-0.4-0.1-0.7-0.3-0.9-0.4c-0.2-0.2-0.3-0.4-0.3-0.6c0-0.3,0.1-0.5,0.4-0.7s0.5-0.3,0.9-0.3
			c0.3,0,0.5,0,0.7,0.1c0.2,0.1,0.4,0.2,0.5,0.4c0.1,0.2,0.2,0.4,0.2,0.6h-0.5c0-0.2-0.1-0.4-0.2-0.5c-0.1-0.1-0.3-0.2-0.6-0.2
			c-0.2,0-0.4,0.1-0.6,0.2c-0.1,0.1-0.2,0.3-0.2,0.4c0,0.2,0.1,0.3,0.2,0.4c0.1,0.1,0.3,0.2,0.7,0.3c0.3,0.1,0.5,0.2,0.7,0.3
			c0.2,0.1,0.3,0.2,0.4,0.4c0.1,0.1,0.1,0.3,0.1,0.5c0,0.3-0.1,0.5-0.4,0.7c-0.2,0.2-0.5,0.3-0.9,0.3c-0.3,0-0.5,0-0.7-0.1
			c-0.2-0.1-0.4-0.2-0.5-0.4c-0.1-0.2-0.2-0.4-0.2-0.6h0.5c0,0.2,0.1,0.4,0.2,0.5c0.2,0.1,0.4,0.2,0.7,0.2c0.3,0,0.5-0.1,0.6-0.2
			c0.1-0.1,0.2-0.2,0.2-0.4c0-0.2-0.1-0.3-0.2-0.4C50.3,21.6,50.1,21.5,49.8,21.4z"/>
		<path class="st0" d="M53.9,21.3h-1.6v1.3h1.9V23h-2.4v-3.7h2.3v0.4h-1.8v1.2h1.6V21.3z"/>
	</g>
</g>
</svg>
