<?xml version="1.0" encoding="utf-8"?>
<!-- Generator: Adobe Illustrator 22.1.0, SVG Export Plug-In . SVG Version: 6.00 Build 0)  -->
<svg version="1.1" id="Layer_1" xmlns="http://www.w3.org/2000/svg" xmlns:xlink="http://www.w3.org/1999/xlink" x="0px" y="0px"
	 viewBox="0 0 84.5 26" style="enable-background:new 0 0 84.5 26;" xml:space="preserve">
<style type="text/css">
	.st0{fill:#302F2D;}
</style>
<g>
	<path class="st0" d="M3.6,3.6h3v12.6c0,4.7,7.6,4.7,7.6,0l0-12.6h3v13c0,8.3-13.7,8.4-13.7,0V3.6z"/>
	<path class="st0" d="M20.6,3.6h3v12.6c0,4.7,7.6,4.7,7.6,0V3.6h3v13c0,8.3-13.7,8.4-13.7,0V3.6z"/>
	<path class="st0" d="M51.4,22.8h-3V10.2c0-4.7-7.6-4.7-7.6,0v12.6h-3v-13c0-8.8,13.7-8.9,13.7,0L51.4,22.8z"/>
	<g>
		<path class="st0" d="M55.3,10.4v3.3c0,0.3,0.1,0.5,0.2,0.6c0.1,0.2,0.3,0.2,0.6,0.2c0.3,0,0.5-0.1,0.6-0.2
			c0.1-0.2,0.2-0.4,0.2-0.6v-3.3h1v3.3c0,0.3,0,0.5-0.1,0.7c-0.1,0.2-0.2,0.4-0.4,0.6c-0.2,0.2-0.3,0.3-0.6,0.4
			c-0.2,0.1-0.5,0.1-0.8,0.1c-0.3,0-0.5,0-0.8-0.1c-0.2-0.1-0.4-0.2-0.6-0.4c-0.2-0.2-0.3-0.3-0.4-0.6c-0.1-0.2-0.1-0.5-0.1-0.7
			v-3.3H55.3z"/>
		<path class="st0" d="M60.8,11.8v0.8h-0.6c-0.4,0-0.6,0.2-0.6,0.6v2.2h-0.9v-3.6h0.7l0,0.3c0.2-0.2,0.4-0.3,0.8-0.3H60.8z"/>
		<path class="st0" d="M62,15.5h-0.7v-5.1l0.9,0v1.4l0.8,0c0.3,0,0.6,0.1,0.9,0.4c0.2,0.2,0.4,0.6,0.4,0.9v0.9c0,0.4-0.1,0.8-0.4,1
			c-0.2,0.3-0.5,0.4-0.9,0.4h-0.4H62z M63.3,13.1c0-0.1,0-0.3-0.1-0.3c-0.1-0.1-0.2-0.1-0.3-0.1h-0.4c-0.1,0-0.2,0-0.3,0.1
			c-0.1,0.1-0.1,0.2-0.1,0.3v1.3c0,0.1,0,0.1,0.1,0.2c0.1,0.1,0.1,0.1,0.2,0.1h0.4c0.1,0,0.1,0,0.2-0.1c0.1,0,0.1-0.1,0.1-0.2
			c0-0.1,0.1-0.2,0.1-0.3V13.1z"/>
		<path class="st0" d="M66.5,15.5H66c-0.3,0-0.6-0.1-0.8-0.3c-0.2-0.2-0.3-0.5-0.3-0.8c0-0.3,0.1-0.6,0.3-0.8
			c0.2-0.2,0.5-0.3,0.8-0.3h0.8V13c0-0.1,0-0.2-0.1-0.2c0-0.1-0.1-0.1-0.2-0.1h-1.3v-0.8l1.3,0c0.3,0,0.6,0.1,0.8,0.3
			c0.2,0.2,0.3,0.5,0.3,0.8v2.5H67L66.5,15.5z M66.8,14.7l0-0.6H66c-0.1,0-0.1,0-0.2,0.1c-0.1,0.1-0.1,0.1-0.1,0.2
			c0,0.1,0,0.2,0.1,0.2c0.1,0.1,0.1,0.1,0.2,0.1h0.5 M66.8,14 M66.8,14.4"/>
		<path class="st0" d="M69.9,11.8l0.4,0c0.3,0,0.6,0.1,0.9,0.4c0.2,0.2,0.4,0.6,0.4,0.9v2.4h-0.9v-2.4c0-0.1,0-0.3-0.1-0.3
			c-0.1-0.1-0.2-0.1-0.3-0.1h-0.4c-0.1,0-0.2,0-0.3,0.1c-0.1,0.1-0.1,0.2-0.1,0.3v2.4h-0.9v-3.7h0.7L69.9,11.8z"/>
	</g>
	<g>
		<path class="st0" d="M63.9,19.1l-1.3,3.6h-0.8l-0.6-1.8l-0.6,1.8h-0.8l-1.3-3.6h1l0.7,1.9l0.6-1.9h0.8l0.6,1.9l0.7-1.9H63.9z"/>
		<path class="st0" d="M72,22.7c-0.4,0-0.7-0.1-0.9-0.4c-0.2-0.3-0.4-0.6-0.4-1v-0.9c0-0.4,0.1-0.7,0.4-0.9c0.2-0.2,0.5-0.3,0.9-0.3
			h0.2c0.2,0,0.5,0,0.5,0v-1.5h0.9v5.1L72,22.7z M72.8,20.3c0-0.1,0-0.2-0.1-0.3c-0.1-0.1-0.2-0.1-0.3-0.1H72c-0.1,0-0.2,0-0.3,0.1
			c-0.1,0.1-0.1,0.2-0.1,0.3v0.9c0,0.1,0,0.2,0.1,0.3c0,0.1,0.1,0.2,0.1,0.2c0.1,0,0.1,0.1,0.2,0.1h0.5c0.1,0,0.1,0,0.2-0.1
			c0.1-0.1,0.1-0.1,0.1-0.2V20.3z"/>
		<g>
			<path class="st0" d="M75.9,22.8c-0.9,0-1.3-0.3-1.4-1.2h0.8c0.1,0.4,0.2,0.4,0.6,0.4c0.2,0,0.3,0,0.4-0.1
				c0.1-0.1,0.1-0.2,0.1-0.3c0-0.1,0-0.1,0-0.1c0,0-0.1-0.1-0.1-0.1c-0.1,0-0.1-0.1-0.2-0.1c-0.1,0-0.2-0.1-0.4-0.1
				c-0.2-0.1-0.4-0.1-0.5-0.2c-0.1-0.1-0.3-0.1-0.3-0.2c-0.1-0.1-0.2-0.2-0.2-0.3c0-0.1-0.1-0.3-0.1-0.5c0-0.2,0-0.3,0.1-0.4
				c0.1-0.1,0.1-0.3,0.2-0.4c0.1-0.1,0.2-0.2,0.4-0.2c0.2-0.1,0.3-0.1,0.5-0.1c0.8,0,1.3,0.2,1.3,1h-0.8c-0.1-0.3-0.2-0.3-0.5-0.3
				c-0.1,0-0.1,0-0.2,0c-0.1,0-0.1,0-0.2,0.1c0,0-0.1,0.1-0.1,0.1c0,0,0,0.1,0,0.1c0,0,0,0.1,0,0.1c0,0,0,0.1,0.1,0.1
				c0,0,0.1,0.1,0.2,0.1c0.1,0,0.2,0.1,0.4,0.1c0.2,0.1,0.4,0.1,0.5,0.2c0.1,0.1,0.3,0.1,0.4,0.2c0.1,0.1,0.2,0.2,0.2,0.3
				c0,0.1,0.1,0.3,0.1,0.5c0,0.2,0,0.3-0.1,0.5c-0.1,0.1-0.1,0.3-0.3,0.4c-0.1,0.1-0.2,0.2-0.4,0.3C76.3,22.7,76.1,22.8,75.9,22.8z"
				/>
		</g>
		<path class="st0" d="M70.2,19v0.9h-0.7c-0.4,0-0.6,0.2-0.6,0.6v2.3h-0.9V19h0.7l0,0.3c0.2-0.2,0.4-0.3,0.8-0.3H70.2z"/>
		<path class="st0" d="M65.8,22.7h-0.5c-0.3,0-0.6-0.1-0.8-0.3c-0.2-0.2-0.3-0.5-0.3-0.8c0-0.3,0.1-0.6,0.3-0.8
			c0.2-0.2,0.5-0.3,0.8-0.3h0.8v-0.2c0-0.1,0-0.2-0.1-0.3c0-0.1-0.1-0.1-0.2-0.1h-1.3V19l1.3,0c0.3,0,0.6,0.1,0.8,0.3
			c0.2,0.2,0.3,0.5,0.3,0.8v2.5h-0.7L65.8,22.7z M66.1,21.9l0-0.6h-0.8c-0.1,0-0.1,0-0.2,0.1C65,21.4,65,21.5,65,21.6
			c0,0.1,0,0.2,0.1,0.2c0.1,0.1,0.1,0.1,0.2,0.1h0.5 M66.1,21.3 M66.1,21.6"/>
		<g>
			<path class="st0" d="M57.1,17.6l1.7,5.1h-1.1l-0.4-1h-1.6l-0.3,1h-1.1l1.7-5.1H57.1z M56.5,19l-0.5,1.9H57L56.5,19z"/>
		</g>
	</g>
	<g>
		<g>
			<path class="st0" d="M59.6,3.2v2.7h0.1l1-1.3h1.2l-1.4,1.7l1.5,2h-1.1l-1.2-1.6h-0.1v1.6h-0.9V3.2H59.6z"/>
			<path class="st0" d="M64.4,4.6v0.8h-0.7c-0.4,0-0.6,0.2-0.6,0.6v2.3h-0.9V4.7h0.7l0,0.3c0.2-0.2,0.4-0.3,0.8-0.3H64.4z"/>
			<path class="st0" d="M69.1,4.7v3.7h-0.9V4.7H69.1z"/>
			<path class="st0" d="M74.6,4.7v3.7h-0.9V4.7H74.6z"/>
		</g>
		<path class="st0" d="M71.3,4.7l0.4,0c0.4,0,0.7,0.1,0.9,0.4C72.8,5.3,73,5.6,73,6v2.4h-0.9V6c0-0.1,0-0.3-0.1-0.4
			c-0.1-0.1-0.2-0.1-0.3-0.1h-0.4c-0.1,0-0.2,0-0.3,0.1c-0.1,0.1-0.1,0.2-0.1,0.3v2.4H70V4.7h0.7L71.3,4.7z"/>
		<path class="st0" d="M80.4,4.7l0.4,0c0.4,0,0.7,0.1,0.9,0.4C81.9,5.3,82,5.6,82,6v2.4h-0.9V6c0-0.1,0-0.3-0.1-0.4
			c-0.1-0.1-0.2-0.1-0.3-0.1h-0.4c-0.1,0-0.2,0-0.3,0.1C80,5.7,80,5.8,80,5.9v2.4h-0.9V4.7h0.7L80.4,4.7z"/>
		<path class="st0" d="M77,8.4h-0.5c-0.3,0-0.6-0.1-0.8-0.3c-0.2-0.2-0.3-0.5-0.3-0.8c0-0.3,0.1-0.6,0.3-0.8C75.9,6.2,76.2,6,76.5,6
			h0.8V5.9c0-0.1,0-0.2-0.1-0.2c0-0.1-0.1-0.1-0.2-0.1h-1.3V4.7l1.3,0c0.3,0,0.6,0.1,0.8,0.3c0.2,0.2,0.3,0.5,0.3,0.8v2.5h-0.7
			L77,8.4z M77.3,7.5l0-0.6h-0.8c-0.1,0-0.1,0-0.2,0.1c-0.1,0.1-0.1,0.1-0.1,0.2c0,0.1,0,0.2,0.1,0.2c0.1,0.1,0.1,0.1,0.2,0.1H77
			 M77.3,6.9 M77.3,7.3"/>
		<path class="st0" d="M66.1,8.4h-0.5c-0.3,0-0.6-0.1-0.8-0.3c-0.2-0.2-0.3-0.5-0.3-0.8c0-0.3,0.1-0.6,0.3-0.8C65,6.2,65.3,6,65.6,6
			h0.8V5.9c0-0.1,0-0.2-0.1-0.2c0-0.1-0.1-0.1-0.2-0.1h-1.3V4.7l1.3,0c0.3,0,0.6,0.1,0.8,0.3c0.2,0.2,0.3,0.5,0.3,0.8v2.5h-0.7
			L66.1,8.4z M66.4,7.5l0-0.6h-0.8c-0.1,0-0.1,0-0.2,0.1c-0.1,0.1-0.1,0.1-0.1,0.2c0,0.1,0,0.2,0.1,0.2c0.1,0.1,0.1,0.1,0.2,0.1h0.5
			 M66.4,6.9 M66.4,7.3"/>
		<path class="st0" d="M55.3,3.2v3.3c0,0.3,0.1,0.5,0.2,0.6c0.1,0.2,0.3,0.2,0.6,0.2c0.3,0,0.5-0.1,0.6-0.2c0.1-0.2,0.2-0.4,0.2-0.6
			V3.2h1v3.3c0,0.3,0,0.5-0.1,0.7c-0.1,0.2-0.2,0.4-0.4,0.6c-0.2,0.2-0.4,0.3-0.6,0.4c-0.2,0.1-0.5,0.1-0.8,0.1
			c-0.3,0-0.6,0-0.8-0.1c-0.2-0.1-0.4-0.2-0.6-0.4c-0.2-0.2-0.3-0.4-0.4-0.6c-0.1-0.2-0.1-0.5-0.1-0.7V3.2H55.3z"/>
		<circle class="st0" cx="68.7" cy="3.6" r="0.5"/>
		<circle class="st0" cx="74.2" cy="3.6" r="0.5"/>
	</g>
</g>
</svg>
