<?xml version="1.0" encoding="utf-8"?>
<!-- Generator: Adobe Illustrator 22.1.0, SVG Export Plug-In . SVG Version: 6.00 Build 0)  -->
<svg version="1.1" id="Layer_1" xmlns="http://www.w3.org/2000/svg" xmlns:xlink="http://www.w3.org/1999/xlink" x="0px" y="0px"
	 viewBox="0 0 26.5 26.3" style="enable-background:new 0 0 26.5 26.3;" xml:space="preserve">
<style type="text/css">
	.st0{fill:#302F2D;}
</style>
<path class="st0" d="M14.1,12.2L14.1,12.2C14.1,12.1,14.1,12.2,14.1,12.2L14.1,12.2z"/>
<g>
	<path class="st0" d="M11.9,18.5C11.9,18.5,11.9,18.6,11.9,18.5c-0.1,0.2-0.2,0.3-0.4,0.4c-0.1,0-0.2,0-0.3-0.2c0-0.1,0-0.1,0-0.2
		c0-1.1,0-3.2,0-3.3h-0.8c0,0,0,3.1,0,3.6c0,0.2,0,0.3,0.1,0.5c0.1,0.2,0.2,0.3,0.4,0.3c0.1,0,0.2,0,0.4,0c0.2-0.1,0.4-0.2,0.6-0.4
		c0,0,0,0,0.1-0.1v0.5h0.8v-4.3l-0.8,0V18.5z M11.9,18.5"/>
	<path class="st0" d="M15.6,15.6c-0.2-0.4-0.5-0.4-0.8-0.4c-0.2,0-0.3,0.2-0.5,0.3c0,0-0.1,0.1-0.1,0.1v-1.9h-0.8v5.8h0.8v-0.3
		c0,0,0.1,0.1,0.1,0.1c0.2,0.2,0.4,0.3,0.7,0.3c0.3,0,0.6-0.2,0.7-0.5c0-0.1,0.1-0.3,0.1-0.5c0-0.8,0-1.6,0-2.4
		C15.8,16,15.7,15.8,15.6,15.6L15.6,15.6z M15,18.6c0,0,0,0.1,0,0.1c0,0.2-0.2,0.2-0.4,0.2c-0.1,0-0.2-0.1-0.3-0.2c0,0,0,0,0,0v-0.1
		l0-2.6c0,0,0,0,0.1-0.1c0.1-0.1,0.2-0.1,0.3-0.1c0.1,0,0.2,0.1,0.2,0.2c0,0.1,0.1,0.2,0.1,0.2C15,17.1,15,17.9,15,18.6L15,18.6z
		 M15,18.6"/>
	<path class="st0" d="M12.8,10.5c0.2,0,0.3-0.1,0.3-0.3V7.9c0-0.2-0.1-0.3-0.3-0.3s-0.3,0.1-0.3,0.3v2.3
		C12.5,10.4,12.6,10.5,12.8,10.5L12.8,10.5z M12.8,10.5"/>
	<path class="st0" d="M10.5,13.7H7.8v0.8h0.9v5h0.9v-5h0.9V13.7z M10.5,13.7"/>
	<path class="st0" d="M17.9,18.1v0.6c0,0.2-0.2,0.4-0.3,0.4c-0.2,0-0.4-0.2-0.4-0.4v-1.1h1.5c0,0,0-0.8,0-1.1c0-0.1,0-0.3,0-0.4
		c-0.1-0.4-0.3-0.6-0.6-0.8c-0.1,0-0.2-0.1-0.3-0.1c-0.4,0-0.7,0.1-1,0.4c-0.2,0.3-0.3,0.6-0.3,0.9c0,0.6,0,1.3,0,1.9
		c0,0.2,0,0.3,0.1,0.5c0.1,0.3,0.3,0.6,0.6,0.8c0.2,0.1,0.5,0.1,0.7,0.1c0.4-0.1,0.7-0.3,0.8-0.7c0.1-0.3,0.1-1,0.1-1H17.9z
		 M17.2,16.3c0-0.2,0.2-0.4,0.4-0.4c0.2,0,0.3,0.2,0.3,0.4v0.6h-0.7V16.3z M17.2,16.3"/>
	<path class="st0" d="M2.3,2.3v21.9h21.9V2.3H2.3z M14.6,6.9h0.8v3.3c0,0,0,0.1,0,0.1c0,0.1,0.1,0.2,0.3,0.2
		c0.2-0.1,0.3-0.2,0.4-0.3c0,0,0-0.1,0-0.1V6.9h0.8l0,4.3h-0.8l0-0.5c-0.1,0.1-0.2,0.2-0.2,0.2c-0.1,0.1-0.3,0.2-0.5,0.3
		c-0.3,0.1-0.6,0-0.7-0.3c0-0.1-0.1-0.2-0.1-0.3V6.9z M12.8,6.7c0.6,0,1.2,0.5,1.2,1.2v2.3c0,0.6-0.5,1.2-1.2,1.2
		c-0.6,0-1.2-0.5-1.2-1.2V7.9C11.7,7.3,12.2,6.7,12.8,6.7L12.8,6.7z M9.7,5.3c0,0,0.4,1.6,0.5,2.3h0c0.2-0.7,0.5-2.3,0.5-2.3h0.9
		c0,0-0.7,2.3-1,3.4c0,0,0,0.1,0,0.1l0,2.4H9.8l0-2.4c0,0,0-0.1,0-0.1c-0.3-1-1-3.4-1-3.4H9.7z M19.8,19.2c0,1.1-0.9,1.9-1.9,2
		c-3.1,0.1-6.1,0.1-9.2,0c-1.1,0-1.9-0.9-1.9-2v-4.8c0-1.1,0.9-1.9,1.9-2c3.1-0.1,6.1-0.1,9.2,0c1.1,0,1.9,0.9,1.9,2V19.2z
		 M19.8,19.2"/>
</g>
</svg>
